<?xml version="1.0" encoding="UTF-8" standalone="no"?>
<!-- Generator: Adobe Illustrator 19.2.1, SVG Export Plug-In . SVG Version: 6.00 Build 0)  -->

<svg
   xmlns:dc="http://purl.org/dc/elements/1.1/"
   xmlns:cc="http://creativecommons.org/ns#"
   xmlns:rdf="http://www.w3.org/1999/02/22-rdf-syntax-ns#"
   xmlns:svg="http://www.w3.org/2000/svg"
   xmlns="http://www.w3.org/2000/svg"
   xmlns:sodipodi="http://sodipodi.sourceforge.net/DTD/sodipodi-0.dtd"
   xmlns:inkscape="http://www.inkscape.org/namespaces/inkscape"
   version="1.1"
   id="layer"
   x="0px"
   y="0px"
   viewBox="0 0 623.79999 204.2"
   xml:space="preserve"
   sodipodi:docname="cigna-logo-vector.svg"
   width="623.79999"
   height="204.2"
   inkscape:version="0.92.3 (2405546, 2018-03-11)"><metadata
   id="metadata21"><rdf:RDF><cc:Work
       rdf:about=""><dc:format>image/svg+xml</dc:format><dc:type
         rdf:resource="http://purl.org/dc/dcmitype/StillImage" /><dc:title></dc:title></cc:Work></rdf:RDF></metadata><defs
   id="defs19" /><sodipodi:namedview
   pagecolor="#ffffff"
   bordercolor="#666666"
   borderopacity="1"
   objecttolerance="10"
   gridtolerance="10"
   guidetolerance="10"
   inkscape:pageopacity="0"
   inkscape:pageshadow="2"
   inkscape:window-width="1920"
   inkscape:window-height="1017"
   id="namedview17"
   showgrid="false"
   fit-margin-top="0"
   fit-margin-left="0"
   fit-margin-right="0"
   fit-margin-bottom="0"
   inkscape:zoom="0.51189325"
   inkscape:cx="31.059895"
   inkscape:cy="132.03046"
   inkscape:window-x="-8"
   inkscape:window-y="-8"
   inkscape:window-maximized="1"
   inkscape:current-layer="layer" />
<style
   type="text/css"
   id="style2">
	.st0{fill:#007CC6;}
	.st1{fill:#EF8200;}
	.st2{fill:#31AC28;}
</style>
<g
   id="g14"
   transform="translate(-15.7,-224.7)">
	<path
   class="st0"
   d="m 81.9,310.8 c 5.3,0 39.9,15.2 39.9,70 0,26.2 -8.8,48 -14,48 -2.3,0 -3.2,-2.3 -3.2,-6.7 0,-9.7 3.4,-18.3 3.4,-39 0,-39.9 -16.4,-56.1 -23.8,-65.1 -2.2,-2.7 -3.8,-4.4 -3.8,-6 0,-0.6 0.4,-1.2 1.5,-1.2 m 87.1,1.3 c 0,1.6 -1.6,3.3 -3.8,6 -7.4,9.1 -23.8,25.2 -23.8,65.1 0,20.7 3.4,29.3 3.4,39 0,4.4 -0.9,6.7 -3.2,6.7 -5.2,0 -14,-21.8 -14,-48 0,-54.8 34.6,-70 39.9,-70 1,-0.1 1.5,0.5 1.5,1.2"
   id="path4"
   inkscape:connector-curvature="0"
   style="fill:#007cc6" />
	<path
   class="st1"
   d="m 112.1,321.8 c 0,7.1 5.7,12.9 12.6,12.9 7,0 12.6,-5.8 12.6,-12.9 0,-7.2 -5.7,-12.9 -12.6,-12.9 -7,-0.1 -12.6,5.7 -12.6,12.9"
   id="path6"
   inkscape:connector-curvature="0"
   style="fill:#ef8200" />
	<path
   class="st2"
   d="m 59.1,301.3 c -6.6,-3 -11.5,-9 -12.3,-14.8 4.9,-3.2 12.6,-3.5 19.2,-0.5 6.9,3.1 8.5,8.4 8.6,13.1 -3.5,3.1 -8.6,5.3 -15.5,2.2 M 78,266.5 C 73.8,260 72.8,251.7 75.4,246 c 6.3,-0.1 13.4,4.2 17.7,10.7 4.4,6.8 2.8,12.5 0.2,16.8 -5,0.6 -10.8,-0.2 -15.3,-7 m 9.9,34.5 c -5.2,-4.4 -8.2,-11.2 -7.4,-16.7 5.3,-1.7 12.4,0.1 17.6,4.6 5.5,4.7 5.6,9.9 4.4,14.1 -4,1.9 -9.1,2.6 -14.6,-2 m 16,-16.7 c -2.3,-7.3 -1,-15.3 3,-20 6,1.6 11.5,7.6 13.8,14.8 2.4,7.6 -0.7,12.6 -4.3,15.8 -4.9,-0.6 -10.2,-3 -12.5,-10.6 m -27.6,53.2 c -5.2,1 -10.7,-0.5 -13.7,-3.6 1.6,-4 6.1,-7.5 11.3,-8.5 5.5,-1.1 8.7,1.4 10.7,4.2 -0.8,3.3 -2.8,6.8 -8.3,7.9 M 62.5,322 c -5.9,-0.6 -11.3,-4.1 -13.5,-8.4 3,-3.8 9,-6 15,-5.3 6.2,0.7 8.9,4.4 10.1,8 -2,3.3 -5.3,6.4 -11.6,5.7 M 62,277.9 c -4.7,-4 -7.3,-9.9 -6.6,-14.8 4.7,-1.5 11,0.1 15.7,4.1 4.9,4.1 5,8.8 3.9,12.6 -3.5,1.6 -8.1,2.3 -13,-1.9 m 31.8,-31.3 c -1.9,-6.1 -0.8,-12.8 2.5,-16.7 5,1.3 9.6,6.3 11.5,12.4 2,6.4 -0.6,10.5 -3.6,13.2 -4.1,-0.6 -8.5,-2.6 -10.4,-8.9 M 15.7,404 c 0,0.2 0.1,0.3 0.3,0.3 0.2,0 0.5,-0.2 0.9,-0.3 18.6,-6.7 46.2,-14.9 84.8,-17.4 0,-0.3 0.3,-2.1 0.3,-3.4 0,-2.8 -0.3,-5.7 -0.4,-6.2 -39.6,3.6 -66.9,15.1 -84.9,26.1 -0.6,0.5 -1,0.6 -1,0.9 M 174.8,299.1 c 0,-4.6 1.7,-9.9 8.6,-13.1 6.6,-3 14.3,-2.7 19.2,0.5 -0.8,5.8 -5.7,11.8 -12.3,14.8 -7,3.1 -12,0.9 -15.5,-2.2 m -18.7,-25.7 c -2.7,-4.2 -4.3,-9.9 0.2,-16.8 4.2,-6.5 11.4,-10.8 17.7,-10.7 2.6,5.7 1.6,14 -2.6,20.5 -4.5,6.9 -10.4,7.7 -15.3,7 m -9.3,29.6 c -1.2,-4.2 -1.1,-9.5 4.4,-14.1 5.2,-4.4 12.3,-6.2 17.6,-4.6 0.8,5.5 -2.2,12.2 -7.4,16.7 -5.4,4.6 -10.6,3.9 -14.6,2 M 133,295 c -3.6,-3.3 -6.7,-8.2 -4.3,-15.8 2.3,-7.3 7.8,-13.2 13.8,-14.8 4,4.7 5.3,12.7 3,20 -2.4,7.5 -7.7,9.9 -12.5,10.6 m 31.7,34.6 c 2,-2.8 5.2,-5.2 10.7,-4.2 5.2,1 9.8,4.5 11.3,8.5 -2.9,3.1 -8.4,4.6 -13.7,3.6 -5.4,-1.1 -7.5,-4.6 -8.3,-7.9 m 10.6,-13.3 c 1.2,-3.6 3.9,-7.4 10.1,-8 5.9,-0.6 12,1.5 15,5.3 -2.1,4.3 -7.5,7.8 -13.5,8.4 -6.3,0.7 -9.7,-2.4 -11.6,-5.7 m -1,-36.6 c -1,-3.8 -1,-8.4 3.9,-12.6 4.7,-3.9 11,-5.5 15.7,-4.1 0.7,4.9 -1.9,10.9 -6.6,14.8 -4.8,4.3 -9.4,3.6 -13,1.9 m -29.1,-24.2 c -3,-2.7 -5.6,-6.9 -3.6,-13.2 1.9,-6.1 6.5,-11 11.5,-12.4 3.3,3.9 4.4,10.6 2.5,16.7 -2,6.3 -6.4,8.3 -10.4,8.9 m 87.4,147.6 c -18,-11 -45.3,-22.5 -84.9,-26.1 -0.1,0.5 -0.4,3.4 -0.4,6.2 0,1.3 0.2,3 0.3,3.4 38.6,2.5 66.2,10.7 84.8,17.4 0.4,0.1 0.7,0.3 0.9,0.3 0.2,0 0.3,-0.1 0.3,-0.3 0,-0.3 -0.3,-0.4 -1,-0.9 M 124.7,261.8 c -5.1,-2.4 -10.2,-6.8 -10.2,-16 0,-8.8 4.2,-17.3 10.2,-21.1 6,3.8 10.2,12.3 10.2,21.1 0,9.2 -5.1,13.7 -10.2,16"
   id="path8"
   inkscape:connector-curvature="0"
   style="fill:#31ac28" />
	<path
   class="st0"
   d="m 334.7,284.6 c 0,5.9 4.9,10.6 10.9,10.6 6,0 10.8,-4.8 10.8,-10.6 0,-5.9 -4.9,-10.6 -10.8,-10.6 -6,0 -10.9,4.8 -10.9,10.6 m 84.7,56.1 c 0,16.8 -6.6,23.8 -16.1,23.8 -9.6,0 -15,-8.1 -15,-22.4 0,-14.6 8.3,-26.6 23.8,-26.6 3.2,0 5.4,0.3 7.3,0.8 z m 0.9,27.6 v 5.5 c 0,15 -9.2,20.8 -20.7,20.8 -10.3,0 -17.9,-3.1 -20.3,-3.9 v 14.8 c 2,0.5 10.3,3.2 22.2,3.2 21.2,0 35.3,-8.7 35.3,-38.7 v -64.6 c -2.7,-0.7 -12.7,-3.3 -24.1,-3.3 -29.7,0 -42.5,19.9 -42.5,41.4 0,19.8 10,35.3 29,35.3 12.6,0 18.6,-7.6 20.6,-10.4 h 0.5 z m -101,-9.2 c -4.8,2.2 -12.4,3.7 -19.8,3.7 -20.1,0 -35,-14.4 -35,-36.4 0,-21.8 14.7,-36.4 35,-36.4 10,0 17.2,2.4 19.8,3.7 V 278 c -4.4,-1.6 -11.5,-3.3 -21.6,-3.3 -31.3,0 -52.3,21.6 -52.3,51.6 0,28.4 19.3,51.6 52.3,51.6 9.6,0 16.9,-1.5 21.6,-3.3 z m 265.2,-18.4 c 0,16.8 -6.6,23.8 -16.1,23.8 -9.6,0 -15,-8.1 -15,-22.4 0,-14.6 8.4,-26.6 23.8,-26.6 3.1,0 5.4,0.3 7.3,0.8 z m 19.7,36.3 c -0.6,-4.1 -2.2,-14.9 -2.2,-24.2 v -47.6 c -2.7,-0.7 -12.7,-3.3 -24.1,-3.3 -29.7,0 -42.5,19.9 -42.5,41.4 0,19.8 9.9,35.3 29,35.3 13.9,0 20.2,-9 22.6,-13.8 h 0.4 c 0.2,2.3 0.8,10 1,12.2 z M 354.3,303.8 H 336.8 V 377 h 17.5 z M 456.7,377 v -50.7 c 0,-6.8 -0.6,-19.8 -0.8,-22.8 h 15.7 l 0.8,10.3 h 0.3 c 1.8,-2.9 7.7,-12 21.5,-12 16.6,0 25.8,12.2 25.8,27.4 V 377 h -17.5 v -44.3 c 0,-9.3 -5.2,-16.4 -14.1,-16.4 -9.2,0 -14.1,7.4 -14.1,16.4 V 377 Z"
   id="path10"
   inkscape:connector-curvature="0"
   style="fill:#007cc6" />
	<path
   class="st0"
   d="m 631.5,363.6 c -0.5,-0.3 -1.2,-0.4 -2.3,-0.4 h -1.6 v 3.9 h 1.7 c 0.8,0 1.4,-0.1 1.8,-0.2 0.7,-0.3 1.1,-0.8 1.1,-1.7 0,-0.8 -0.3,-1.3 -0.7,-1.6 m -2.1,-1.7 c 1.3,0 2.3,0.1 2.9,0.4 1.1,0.5 1.7,1.4 1.7,2.7 0,1 -0.4,1.7 -1,2.1 -0.4,0.2 -0.9,0.4 -1.5,0.5 0.8,0.1 1.5,0.5 1.8,1 0.4,0.6 0.6,1.1 0.6,1.7 v 0.8 c 0,0.2 0,0.5 0,0.8 0,0.3 0,0.5 0.1,0.6 l 0.1,0.1 h -1.8 c 0,0 0,-0.1 0,-0.1 0,0 0,-0.1 0,-0.1 v -0.3 -0.8 c 0,-1.2 -0.3,-2.1 -1,-2.4 -0.4,-0.2 -1.1,-0.3 -2.1,-0.3 h -1.5 v 4.2 h -1.9 v -10.7 h 3.6 z m -5.7,-0.5 c -1.6,1.6 -2.4,3.6 -2.4,5.9 0,2.3 0.8,4.3 2.4,6 1.6,1.6 3.6,2.5 5.9,2.5 2.3,0 4.3,-0.8 5.9,-2.5 1.6,-1.6 2.4,-3.6 2.4,-6 0,-2.3 -0.8,-4.3 -2.4,-5.9 -1.6,-1.6 -3.6,-2.5 -5.9,-2.5 -2.3,0 -4.3,0.8 -5.9,2.5 m 12.8,12.8 c -1.9,1.9 -4.2,2.9 -6.9,2.9 -2.7,0 -5,-1 -6.9,-2.9 -1.9,-1.9 -2.8,-4.2 -2.8,-6.9 0,-2.7 1,-5 2.9,-6.9 1.9,-1.9 4.2,-2.8 6.9,-2.8 2.7,0 5,1 6.9,2.8 1.9,1.9 2.9,4.2 2.9,6.9 -0.1,2.7 -1.1,5 -3,6.9"
   id="path12"
   inkscape:connector-curvature="0"
   style="fill:#007cc6" />
</g>
</svg>