<?xml version="1.0" encoding="UTF-8" standalone="no"?>
<!-- Created with Inkscape (http://www.inkscape.org/) -->

<svg
   xmlns:dc="http://purl.org/dc/elements/1.1/"
   xmlns:cc="http://creativecommons.org/ns#"
   xmlns:rdf="http://www.w3.org/1999/02/22-rdf-syntax-ns#"
   xmlns:svg="http://www.w3.org/2000/svg"
   xmlns="http://www.w3.org/2000/svg"
   xmlns:sodipodi="http://sodipodi.sourceforge.net/DTD/sodipodi-0.dtd"
   xmlns:inkscape="http://www.inkscape.org/namespaces/inkscape"
   version="1.1"
   id="svg815"
   xml:space="preserve"
   width="1110.1866"
   height="144.67999"
   viewBox="0 0 1110.1866 144.67999"
   sodipodi:docname="cityofknoxville.svg"
   inkscape:version="0.92.3 (2405546, 2018-03-11)"><metadata
     id="metadata821"><rdf:RDF><cc:Work
         rdf:about=""><dc:format>image/svg+xml</dc:format><dc:type
           rdf:resource="http://purl.org/dc/dcmitype/StillImage" /><dc:title></dc:title></cc:Work></rdf:RDF></metadata><defs
     id="defs819" /><sodipodi:namedview
     pagecolor="#ffffff"
     bordercolor="#666666"
     borderopacity="1"
     objecttolerance="10"
     gridtolerance="10"
     guidetolerance="10"
     inkscape:pageopacity="0"
     inkscape:pageshadow="2"
     inkscape:window-width="750"
     inkscape:window-height="371"
     id="namedview817"
     showgrid="false"
     inkscape:zoom="1.2664537"
     inkscape:cx="555.09332"
     inkscape:cy="72.339996"
     inkscape:window-x="173"
     inkscape:window-y="51"
     inkscape:window-maximized="0"
     inkscape:current-layer="g823" /><g
     id="g823"
     inkscape:groupmode="layer"
     inkscape:label="ink_ext_XXXXXX"
     transform="matrix(1.3333333,0,0,-1.3333333,0,144.68)"><g
       id="g825"
       transform="scale(0.1)"><path
         d="m 1206.64,280.215 c -58.19,-22.754 -86.06,-91.488 -223.882,-93.281 -43.156,-0.547 -125.957,52.246 -179.465,52.246 -62.137,0 -130.527,-49.465 -181.098,-49.465 -69.05,0 -107.351,54.582 -181.257,55.351 -76.5,0.789 -112.047,-62.851 -188.172,-55.351 -74.5,7.324 -143.442,74.656 -170.8168,87.519 -12.0703,5.684 -32.1719,15.071 -30.0625,25.735 2.5235,12.793 19.2852,8.894 35.2383,1.511 33.477,-15.476 99.887,-33.82 165.641,-31.867 76.449,2.278 111.672,56.133 188.172,55.371 73.906,-0.769 112.207,-55.371 181.257,-55.371 50.571,0 118.961,48.907 181.098,49.453 53.508,0.508 136.348,-49.55 179.465,-52.214 127.462,-7.864 154.442,31.218 215.712,36.906 21.76,2.027 39.33,6.597 42.28,-2.278 5.01,-15.128 -9.8,-14.765 -34.11,-24.265"
         style="fill:#4154ad;fill-opacity:1;fill-rule:evenodd;stroke:none"
         id="path827"
         inkscape:connector-curvature="0" /><path
         d="M 1206.64,112.43 C 1148.45,89.6836 1120.58,20.9414 982.758,19.1602 939.602,18.6094 856.801,71.3789 803.293,71.3789 c -62.137,0 -130.527,-49.4687 -181.098,-49.4687 -69.05,0 -107.351,54.6093 -181.257,55.3593 -76.5,0.7891 -112.047,-62.8398 -188.172,-55.3593 -74.5,7.3515 -143.442,74.6679 -170.8168,87.5388 -12.0703,5.664 -32.1719,15.063 -30.0625,25.742 2.5235,12.786 19.2852,8.887 35.2383,1.504 33.477,-15.476 99.891,-33.816 165.641,-31.863 76.449,2.273 111.672,56.152 188.172,55.359 73.906,-0.757 112.207,-55.359 181.257,-55.359 50.571,0 118.961,48.906 181.098,49.473 53.508,0.488 136.348,-49.563 179.465,-52.227 127.462,-7.8827 154.442,31.211 215.712,36.887 21.76,2.027 38.7,6.375 42.28,-2.27 7.47,-18.062 -9.8,-14.754 -34.11,-24.265"
         style="fill:#4154ad;fill-opacity:1;fill-rule:evenodd;stroke:none"
         id="path829"
         inkscape:connector-curvature="0" /><path
         d="m 573.191,373.277 c -13.449,-0.847 -30.418,-2.168 -31.937,9.25 -1.68,12.61 8.574,15.684 13.453,16.797 43.695,10.11 119.336,23.535 205.055,85.735 78.926,57.25 110.554,105.808 201.703,152.957 79.025,40.871 276.295,57.363 323.295,43.359 10.99,-3.277 13.12,-8.773 2.67,-16.816 C 1146.53,658.863 1094.35,617.66 1011.89,548.93 965.352,510.125 930.32,470.086 867.336,436.316 763.949,380.887 691.695,374.949 573.191,373.277"
         style="fill:#4cbd38;fill-opacity:1;fill-rule:evenodd;stroke:none"
         id="path831"
         inkscape:connector-curvature="0" /><path
         d="m 334.48,398.582 c 109.43,-7.09 177.352,6.367 275.817,54.602 61.734,30.242 90.48,50.886 143.723,102.062 51.355,49.367 158.242,119.477 207.347,127.692 42.963,7.187 71.543,8.867 63.133,25.671 -3.56,7.125 -40.34,4.2 -56.312,5.036 -55.2,2.914 -150.528,-9.86 -218.504,-48.735 C 619.668,590.539 561.223,510.801 450.488,461.512 411.633,444.234 354.684,429.598 321.063,426.219 c -16.633,-1.66 -18.79,-27.16 13.417,-27.637"
         style="fill:#4cbd38;fill-opacity:1;fill-rule:evenodd;stroke:none"
         id="path833"
         inkscape:connector-curvature="0" /><path
         d="M 476.543,522.891 C 469.824,531.277 395.703,612.32 300.051,667.43 222.734,711.973 97.5117,716.176 37.0039,717.02 20.6406,717.242 -0.816406,716.176 0.0234375,703.563 0.566406,695.309 20.1953,694.32 36.1602,693.484 105.074,686.758 178.191,651.453 250.078,592.395 293.746,556.52 366.453,483.719 380.742,477.496 c 0,0 25.215,5.883 50.414,18.488 18.168,9.075 45.387,26.907 45.387,26.907"
         style="fill:#4cbd38;fill-opacity:1;fill-rule:evenodd;stroke:none"
         id="path835"
         inkscape:connector-curvature="0" /><path
         d="m 554.824,588.797 c -18.816,-16.598 -38.515,-31.91 -38.515,-31.91 -17.036,12.5 -27.711,27.812 -48.852,48.144 -47.402,45.563 -123.297,101.047 -204.199,112.375 -4.637,0.653 -16.988,0.449 -15.309,10.532 1.375,8.281 12.012,6.816 24.473,8.496 48.609,6.558 155.219,-5.075 222.976,-43.832 40.93,-23.407 72.997,-48.02 100.153,-72.985 0,0 -22.012,-14.308 -40.727,-30.82"
         style="fill:#4cbd38;fill-opacity:1;fill-rule:evenodd;stroke:none"
         id="path837"
         inkscape:connector-curvature="0" /><path
         d="m 709.336,711.133 c -30.82,-15.403 -47.617,-25.758 -75.211,-46.395 -20.594,17.813 -34.031,28.746 -60.094,45.555 -31.051,20.031 -86.273,39.184 -86.273,39.184 12.98,73.199 76.035,122.152 152.961,122.152 78.375,0 135.847,-52.086 152.664,-127.727 0,0 -52.563,-17.058 -84.047,-32.769"
         style="fill:#f57d14;fill-opacity:1;fill-rule:nonzero;stroke:none"
         id="path839"
         inkscape:connector-curvature="0" /><path
         d="m 460.82,757.184 c -58.324,36.308 -171.687,59 -166.179,69.328 4.922,9.203 127.656,-16.508 183.789,-16.508 -2.2,-6.598 -5.5,-15.41 -9.91,-26.41 -3.77,-9.422 -7.7,-26.41 -7.7,-26.41"
         style="fill:#f57d14;fill-opacity:1;fill-rule:evenodd;stroke:none"
         id="path841"
         inkscape:connector-curvature="0" /><path
         d="m 488.855,825.863 c -37.511,57.563 -127.484,125.024 -121.3,133.067 6.351,8.285 108.715,-68.907 159.586,-92.633 -4.793,-5.051 -11.5,-11.637 -20.137,-19.746 -7.399,-6.949 -18.149,-20.688 -18.149,-20.688"
         style="fill:#f57d14;fill-opacity:1;fill-rule:evenodd;stroke:none"
         id="path843"
         inkscape:connector-curvature="0" /><path
         d="m 544.023,881.184 c -9.668,68.027 -62.699,167.186 -53.703,171.856 9.266,4.82 69.41,-108.395 105.493,-151.395 -6.477,-2.555 -15.344,-5.68 -26.598,-9.379 -9.641,-3.176 -25.192,-11.082 -25.192,-11.082"
         style="fill:#f57d14;fill-opacity:1;fill-rule:evenodd;stroke:none"
         id="path845"
         inkscape:connector-curvature="0" /><path
         d="m 618.199,905.746 c 19.977,65.734 16.274,178.934 26.41,179.374 10.43,0.45 17.094,-127.577 31.625,-181.796 -6.953,0.41 -16.312,1.328 -28.074,2.731 -10.074,1.203 -29.961,-0.309 -29.961,-0.309"
         style="fill:#f57d14;fill-opacity:1;fill-rule:evenodd;stroke:none"
         id="path847"
         inkscape:connector-curvature="0" /><path
         d="m 700.316,899.313 c 45.883,51.128 91.2,155.597 100.559,151.697 9.648,-3.99 -41.855,-122.936 -51.598,-178.209 -6.129,3.316 -14.218,8.094 -24.289,14.34 -8.621,5.355 -24.672,12.172 -24.672,12.172"
         style="fill:#f57d14;fill-opacity:1;fill-rule:evenodd;stroke:none"
         id="path849"
         inkscape:connector-curvature="0" /><path
         d="m 768.02,859.906 c 63.191,26.942 154.769,95.145 161.625,87.657 7.039,-7.704 -96.282,-86.407 -128.469,-132.375 -4.141,5.582 -9.461,13.335 -15.946,23.257 -5.55,8.489 -17.21,21.461 -17.21,21.461"
         style="fill:#f57d14;fill-opacity:1;fill-rule:evenodd;stroke:none"
         id="path851"
         inkscape:connector-curvature="0" /><path
         d="m 812.008,802.234 c 68.652,-2.289 178.937,26.891 181.984,17.207 3.133,-9.953 -122.238,-43.703 -170.832,-71.757 -1.398,6.816 -2.933,16.093 -4.629,27.824 -1.445,10.039 -6.523,26.726 -6.523,26.726"
         style="fill:#f57d14;fill-opacity:1;fill-rule:evenodd;stroke:none"
         id="path853"
         inkscape:connector-curvature="0" /><path
         d="m 5074.81,121.199 c 0,-107.4099 -67.51,-73.6482 -67.51,-100.4998 0,-3.8203 0.78,-8.4375 9.98,-8.4375 5.35,0 45.21,3.0703 72.1,3.0703 37.6,0 59.09,-3.0703 77.5,-3.0703 7.68,0 8.44,6.1367 8.44,9.9571 0,20.75 -67.54,-6.1172 -67.54,62.9335 V 398.934 c 0,15.339 2.31,17.636 5.37,17.636 5.39,0 14.58,-13.027 16.13,-14.57 L 5459.22,30.6719 c 16.07,-17.6406 23.73,-21.48049 29.1,-21.48049 6.13,0 6.94,10.73049 6.94,32.99999 V 486.414 c 0,56 45.23,42.188 45.23,62.133 0,4.594 -3.06,6.898 -7.62,6.898 -18.42,0 -51.45,-3.074 -77.53,-3.074 -24.57,0 -46.8,3.074 -69.8,3.074 -4.59,0 -8.43,-2.304 -8.43,-7.668 0,-25.328 85.15,3.836 85.15,-96.683 V 130.418 c 0,-6.145 -0.79,-8.445 -2.32,-8.445 -1.53,0 -4.6,3.062 -9.22,8.445 l -365.94,407.387 c -4.63,5.367 -11.51,17.64 -19.96,17.64 -11.49,0 -23.76,-3.074 -35.28,-3.074 -12.26,0 -23.76,3.074 -36.04,3.074 -3.85,0 -11.48,-3.074 -11.48,-7.668 0,-28.406 92.79,16.102 92.79,-143.472 V 121.199"
         style="fill:#231f20;fill-opacity:1;fill-rule:evenodd;stroke:none"
         id="path855"
         inkscape:connector-curvature="0" /><path
         d="m 5784.53,6.87891 c 171.11,0 290.04,111.25409 290.04,283.88309 0,158.804 -120.49,271.586 -276.94,271.586 -157.33,0 -281.61,-115.836 -281.61,-275.438 0,-161.875 102.06,-280.03109 268.51,-280.03109 z m -9.94,530.17209 c 149.6,0 243.95,-135.813 243.95,-275.442 0,-141.945 -89.78,-231.7106 -201.75,-231.7106 -151.92,0 -244.75,137.3356 -244.75,279.2816 0,121.211 73.64,227.871 202.55,227.871"
         style="fill:#231f20;fill-opacity:1;fill-rule:evenodd;stroke:none"
         id="path857"
         inkscape:connector-curvature="0" /><path
         d="m 6229.36,448.797 c -27.65,42.969 -37.62,59.082 -37.62,67.519 0,22.247 33.79,18.414 33.79,29.157 0,7.668 -6.92,9.972 -13.04,9.972 -23.82,0 -48.36,-3.074 -72.16,-3.074 -66.74,0 -66.74,3.074 -84.36,3.074 -5.36,0 -9.22,-3.832 -9.22,-9.199 0,-20.723 36.8,12.27 93.58,-72.129 l 118.96,-177.996 c 3.07,-4.59 7.65,-11.492 7.65,-14.57 0,-2.317 -3.84,-7.676 -7.65,-13.047 L 6118.1,65.9492 c -25.33,-36.0508 -70.58,-29.1406 -70.58,-46.7773 0,-4.6211 2.27,-6.9102 9.21,-6.9102 21.47,0 43.73,3.0703 65.23,3.0703 33.72,0 54.43,-3.0703 74.42,-3.0703 6.88,0 11.51,2.2891 11.51,7.6602 0,18.4297 -48.35,7.6797 -48.35,35.2969 0,14.582 15.32,36.0664 32.95,62.1402 l 83.66,124.289 c 4.6,6.922 8.45,8.426 10.76,8.426 3.05,0 5.36,-3.054 7.65,-6.875 l 95.92,-151.1482 c 14.54,-23 16.85,-28.3789 16.85,-39.1289 0,-19.9219 -32.22,-16.8711 -32.22,-33 0,-6.1328 2.33,-7.6602 9.99,-7.6602 10.75,0 39.14,3.0703 68.29,3.0703 30.71,0 59.05,-3.0703 69.82,-3.0703 6.13,0 13.78,0.7696 13.78,8.4375 0,24.5391 -28.38,-7.6679 -68.28,56.0117 L 6335.21,286.91 c -5.34,8.449 -9.18,16.125 -9.18,19.961 0,6.137 3.84,11.516 6.12,14.582 l 116.63,164.961 c 43.75,62.133 75.18,45.242 75.18,61.363 0,3.075 -1.56,7.668 -6.14,7.668 -5.38,0 -6.9,-3.074 -58.29,-3.074 -51.41,0 -51.41,3.84 -70.6,3.074 -4.58,0 -9.97,-0.769 -9.97,-6.898 0,-18.422 42.18,-11.496 42.18,-33.754 0,-13.828 -16.12,-36.066 -25.29,-49.871 l -69.07,-98.988 c -13.05,-18.407 -18.39,-28.375 -22.99,-28.375 -4.62,0 -9.23,9.207 -19.93,26.082 l -54.5,85.156"
         style="fill:#231f20;fill-opacity:1;fill-rule:evenodd;stroke:none"
         id="path859"
         inkscape:connector-curvature="0" /><path
         d="M 6719.14,48.3281 C 6726.04,32.2109 6735.22,0 6747.54,0 c 11.49,0 16.85,25.3203 25.3,44.4883 l 191.05,451.8987 c 21.47,51.39 42.94,32.215 42.94,49.086 0,6.898 -4.58,9.972 -13.02,9.972 -10.77,0 -22.24,-3.074 -59.13,-3.074 -16.83,0 -33.73,3.074 -50.59,3.074 -7.68,0 -11.51,-2.304 -11.51,-9.972 0,-17.653 49.11,-3.059 49.11,-38.356 3.06,-16.125 -6.16,-40.676 -10.75,-52.168 l -133.53,-329.14 c -3.82,-9.2 -6.13,-21.496 -13.77,-21.496 -8.45,0 -13.82,17.66 -30.72,58.324 l -134.23,316.09 c -3.09,6.906 -6.91,19.179 -6.91,29.914 0,27.617 32.19,28.41 31.42,39.136 0,4.594 -6.14,7.668 -10.72,7.668 -10.73,0 -39.86,-3.074 -60.59,-3.074 -23.02,0 -46.82,3.074 -70.6,3.074 -6.91,0 -10.78,-3.832 -10.78,-10.734 0,-16.891 39.93,-2.297 59.13,-48.324 l 189.5,-448.0589"
         style="fill:#231f20;fill-opacity:1;fill-rule:evenodd;stroke:none"
         id="path861"
         inkscape:connector-curvature="0" /><path
         d="m 7010.09,96.6406 c 0,-75.9414 -59.81,-50.6211 -59.81,-72.8789 0,-7.6601 2.28,-11.5 16.08,-11.5 10.74,0 26.86,3.0703 73.68,3.0703 32.98,0 65.93,-3.0703 83.59,-3.0703 13.07,0 15.34,2.2891 15.34,7.6602 0,23.0469 -68.26,5.3984 -68.26,57.539 V 489.461 c 0,57.543 55.22,39.902 55.22,58.316 0,6.141 -2.3,7.668 -14.57,7.668 -23.76,0 -47.58,-3.074 -71.32,-3.074 -28.43,0 -56.05,3.074 -84.42,3.074 -6.11,0 -7.67,-1.527 -7.67,-8.441 0,-16.879 61.4,-1.531 62.14,-57.543 V 96.6406"
         style="fill:#231f20;fill-opacity:1;fill-rule:evenodd;stroke:none"
         id="path863"
         inkscape:connector-curvature="0" /><path
         d="m 7271.35,479.5 c 0,66.746 56.01,47.551 56.01,65.211 0,9.207 -4.6,10.734 -14.56,10.734 -11.52,0 -29.92,-3.074 -73.65,-3.074 -37.61,0 -61.38,3.074 -77.5,3.074 -9.94,0 -15.33,-1.527 -15.33,-9.972 0,-15.348 64.41,-9.989 64.41,-49.86 V 106.629 c 0,-36.0587 -1.5,-57.547 -21.49,-66.7579 -24.51,-12.2695 -32.2,-10.7305 -33.74,-19.9492 0,-6.1328 4.62,-7.6602 11.55,-7.6602 30.67,0 62.85,2.2891 93.57,3.0703 58.31,1.5469 116.63,-3.0703 174.91,-3.0703 33.79,0 50.6,-1.5312 75.17,26.0899 18.44,19.9297 38.37,46.8007 38.37,74.4104 0,1.535 -0.74,9.211 -6.12,9.211 -9.99,0 -36.05,-79.0042 -213.3,-79.0042 -64.43,0 -58.3,18.4023 -58.3,63.6602 V 479.5"
         style="fill:#231f20;fill-opacity:1;fill-rule:evenodd;stroke:none"
         id="path865"
         inkscape:connector-curvature="0" /><path
         d="m 7659.22,479.5 c 0,66.746 56.01,47.551 56.01,65.211 0,9.207 -4.61,10.734 -14.55,10.734 -11.55,0 -29.96,-3.074 -73.66,-3.074 -37.65,0 -61.41,3.074 -77.52,3.074 -9.97,0 -15.32,-1.527 -15.32,-9.972 0,-15.348 64.4,-9.989 64.4,-49.86 V 106.629 c 0,-36.0587 -1.5,-57.547 -21.45,-66.7579 -24.57,-12.2695 -32.2,-10.7305 -33.76,-19.9492 0,-6.1328 4.6,-7.6602 11.48,-7.6602 30.72,0 62.95,2.2891 93.65,3.0703 58.29,1.5469 116.57,-3.0703 174.92,-3.0703 33.74,0 50.61,-1.5312 75.18,26.0899 18.38,19.9297 38.33,46.8007 38.33,74.4104 0,1.535 -0.74,9.211 -6.1,9.211 -9.99,0 -36.09,-79.0042 -213.28,-79.0042 -64.49,0 -58.33,18.4023 -58.33,63.6602 V 479.5"
         style="fill:#231f20;fill-opacity:1;fill-rule:evenodd;stroke:none"
         id="path867"
         inkscape:connector-curvature="0" /><path
         d="m 8048.62,474.891 c 0,51.406 -1.55,48.339 72.1,48.339 30.72,0 110.49,4.59 130.46,-21.496 12.27,-17.644 0,-54.461 18.4,-54.461 4.58,0 15.34,6.145 15.34,91.29 0,9.214 -1.54,16.882 -7.65,16.882 -23.79,0 -94.41,-3.074 -109.74,-3.074 -32.19,0 -72.13,3.074 -217.11,3.074 -22.25,0 -26.86,-3.074 -26.86,-9.199 0,-9.195 16.85,-10.762 23.01,-12.281 41.45,-6.145 41.45,-42.973 41.45,-77.492 V 106.629 c 0,-36.0587 -1.57,-57.547 -21.49,-66.7579 -24.56,-12.2695 -32.25,-10.7305 -33.75,-19.9492 0,-6.1328 4.58,-7.6602 11.53,-7.6602 30.7,0 62.84,2.2891 93.53,3.0703 58.33,1.5469 116.64,-3.0703 174.96,-3.0703 33.74,0 50.65,-1.5312 75.18,26.0899 18.41,19.9297 38.39,46.8007 38.39,74.4104 0,1.535 -0.76,9.211 -6.16,9.211 -9.98,0 -36.05,-79.0042 -213.28,-79.0042 -64.43,0 -58.31,18.4023 -58.31,63.6602 v 141.16 c 0,11.516 -2.32,24.563 13.8,24.563 h 113.55 c 64.43,0 38.4,-67.532 62.17,-67.532 5.32,0 8.4,3.086 8.4,10 0,20.696 -1.51,40.637 -1.51,60.586 0,24.563 1.51,50.657 1.51,77.5 0,6.125 -2.28,14.582 -8.4,14.582 -18.42,0 2.26,-61.394 -77.51,-61.394 h -82.85 c -30.71,0 -29.16,0 -29.16,26.09 v 142.707"
         style="fill:#231f20;fill-opacity:1;fill-rule:evenodd;stroke:none"
         id="path869"
         inkscape:connector-curvature="0" /><path
         d="m 1367.29,342.918 c 0,-199.895 141.94,-336.03909 339.89,-336.03909 217.26,0 285.81,72.41019 286.78,76.28129 l 22.21,96.5818 c 0.95,4.809 -3.86,10.598 -8.69,10.598 -5.8,0 -11.6,-5.789 -13.52,-12.539 -14.48,-44.434 -109.12,-140.9807 -260.71,-140.9807 -185.39,0 -281.95,167.9997 -281.95,336.0387 0,179.586 90.76,305.11 279.05,305.11 124.56,0 193.12,-62.762 252.98,-166.086 3.87,-6.746 10.63,-31.856 22.21,-31.856 16.42,0 7.72,31.856 5.8,83.043 -2.91,62.77 -2.91,78.203 -13.52,78.203 -9.66,0 -15.45,-9.644 -23.18,-9.644 -28,0 -78.2,74.336 -259.73,74.336 -203.75,0 -347.62,-163.172 -347.62,-363.047"
         style="fill:#231f20;fill-opacity:1;fill-rule:evenodd;stroke:none"
         id="path871"
         inkscape:connector-curvature="0" /><path
         d="m 2101.64,96.6406 c 0,-75.9414 -59.85,-50.6211 -59.85,-72.8789 0,-7.6601 2.3,-11.5 16.11,-11.5 10.75,0 26.86,3.0703 73.65,3.0703 32.99,0 65.98,-3.0703 83.62,-3.0703 13.04,0 15.35,2.2891 15.35,7.6602 0,23.0469 -68.29,5.3984 -68.29,57.539 V 489.461 c 0,57.543 55.25,39.902 55.25,58.316 0,6.141 -2.31,7.668 -14.57,7.668 -23.79,0 -47.57,-3.074 -71.36,-3.074 -28.4,0 -56,3.074 -84.39,3.074 -6.15,0 -7.67,-1.527 -7.67,-8.441 0,-16.879 61.36,-1.531 62.15,-57.543 V 96.6406"
         style="fill:#231f20;fill-opacity:1;fill-rule:evenodd;stroke:none"
         id="path873"
         inkscape:connector-curvature="0" /><path
         d="m 2448.04,79.0313 c 0,-46.0313 -60.6,-38.3829 -60.6,-56.8125 0,-7.668 2.31,-9.9571 9.2,-9.9571 4.61,0 19.19,3.0703 105.12,3.0703 22.23,0 43.73,-3.0703 62.15,-3.0703 7.65,0 6.89,6.9102 6.89,9.2071 0,23.7695 -62.14,-1.5469 -62.14,62.9101 V 475.652 c 0,40.664 -3.83,37.61 30.71,37.61 h 109.69 c 78.26,0 36.82,-58.313 65.22,-58.313 9.97,0 9.21,9.207 8.43,16.875 l -3.83,61.375 c -0.76,17.653 -4.6,22.246 -22.25,22.246 -15.36,0 -85.93,-3.074 -224.8,-3.074 -98.95,0 -158.04,3.074 -217.88,3.074 -13.81,0 -13.05,-20.715 -13.81,-29.922 l -8.44,-74.429 c 0,-3.821 3.07,-9.192 7.68,-9.192 9.97,0 10.74,9.969 13.04,17.625 13.81,42.207 15.34,53.735 62.91,53.735 h 125.05 c 10.74,-0.793 7.66,-29.934 7.66,-35.317 V 79.0313"
         style="fill:#231f20;fill-opacity:1;fill-rule:evenodd;stroke:none"
         id="path875"
         inkscape:connector-curvature="0" /><path
         d="m 2889.12,302.266 c 6.15,-9.203 17.66,-24.551 17.66,-39.133 V 77.4609 c 0,-54.4609 -59.08,-34.4921 -59.08,-55.9921 0,-8.4375 4.6,-9.2071 11.51,-9.2071 6.89,0 34.52,3.0703 69.05,3.0703 28.38,0 72.88,-3.0703 84.39,-3.0703 10.73,0 17.65,0.7696 17.65,7.6602 0,23.8086 -62.92,2.2969 -62.92,69.0586 V 276.949 c 0,11.496 6.15,15.332 18.41,34.524 l 107.4,167.254 c 12.29,19.179 22.27,40.644 42.97,52.929 5.39,3.074 18.42,6.149 18.42,14.59 0,3.828 -3.85,9.199 -8.43,9.199 -22.25,0 -44.5,-3.074 -66.76,-3.074 -18.42,0 -37.58,3.074 -56.01,3.074 -8.44,0 -16.1,-1.527 -16.1,-11.504 0,-18.418 57.54,-2.312 57.54,-39.882 0,-20.731 -10.73,-33.789 -16.11,-42.207 l -79.03,-128.153 c -6.14,-9.953 -10.74,-15.312 -14.57,-15.312 -4.6,0 -9.22,4.582 -15.34,13.797 l -92.84,148.078 c -4.61,6.883 -13.81,19.179 -13.81,31.465 0,22.238 36.05,23.003 36.05,36.05 0,6.899 -9.2,7.668 -14.56,7.668 -7.68,0 -28.4,-3.074 -53.72,-3.074 -52.17,0 -66.75,3.074 -87.46,3.074 -5.37,0 -9.96,-6.14 -9.96,-11.504 0,-13.054 37.59,-3.836 57.53,-36.824 l 128.12,-204.851"
         style="fill:#231f20;fill-opacity:1;fill-rule:evenodd;stroke:none"
         id="path877"
         inkscape:connector-curvature="0" /><path
         d="m 3568.42,6.87891 c 171.13,0 290.01,111.25409 290.01,283.88309 0,158.804 -120.46,271.586 -276.97,271.586 -157.27,0 -281.57,-115.836 -281.57,-275.438 0,-161.875 102.03,-280.03109 268.53,-280.03109 z m -9.98,530.17209 c 149.6,0 243.99,-135.813 243.99,-275.442 0,-141.945 -89.76,-231.7106 -201.78,-231.7106 -151.92,0 -244.73,137.3356 -244.73,279.2816 0,121.211 73.65,227.871 202.52,227.871"
         style="fill:#231f20;fill-opacity:1;fill-rule:evenodd;stroke:none"
         id="path879"
         inkscape:connector-curvature="0" /><path
         d="m 3979.35,474.891 c 0,51.406 -1.52,48.339 72.12,48.339 30.68,0 110.46,4.59 130.38,-21.496 12.3,-17.644 0,-54.461 18.45,-54.461 4.62,0 15.35,6.145 15.35,91.29 0,9.214 -1.53,16.882 -7.65,16.882 -23.79,0 -94.41,-3.074 -109.76,-3.074 -32.21,0 -72.1,3.074 -217.07,3.074 -22.28,0 -26.91,-3.074 -26.91,-9.199 0,-9.195 16.9,-10.762 23.03,-12.281 41.44,-6.145 41.44,-42.973 41.44,-77.492 V 102.789 c 0,-85.1601 -55.99,-62.9179 -55.99,-84.3906 0,-1.5195 1.51,-6.9101 7.66,-6.9101 13.81,0 40.68,3.8437 79.77,3.8437 71.39,0 79.03,-3.8437 84.39,-3.8437 5.41,0 16.91,0 16.91,10.7305 0,17.6523 -72.12,-2.2969 -72.12,70.6015 V 247.789 c 0,11.516 -3.82,24.563 13.81,24.563 h 113.52 c 64.45,0 38.39,-67.532 62.17,-67.532 5.36,0 8.42,3.086 8.42,10 0,20.696 -1.53,40.637 -1.53,60.586 0,24.563 1.53,50.657 1.53,77.5 0,6.125 -2.28,14.582 -8.42,14.582 -18.41,0 2.28,-61.394 -77.49,-61.394 h -82.85 c -30.68,0 -29.16,0 -29.16,26.09 v 142.707"
         style="fill:#231f20;fill-opacity:1;fill-rule:evenodd;stroke:none"
         id="path881"
         inkscape:connector-curvature="0" /><path
         d="m 4562.95,386.387 c -3.83,-3.891 -7.69,-4.848 -10.62,-4.848 -2.89,0 -4.81,3.859 -4.81,9.66 v 217.246 c 0,68.555 55.98,58.899 55.98,80.153 0,5.785 -2.89,8.683 -7.69,8.683 -28.98,0 -58.91,-3.863 -99.53,-3.863 -31.81,0 -62.73,3.863 -93.6,3.863 -8.7,0 -12.55,-1.933 -12.55,-10.617 0,-25.105 81.11,-1.941 81.11,-82.086 V 110.203 c 0,-82.0624 -68.56,-65.6522 -68.56,-81.0936 0,-14.5 13.52,-15.4688 24.12,-15.4688 15.45,0 45.4,3.8711 94.62,3.8711 74.39,0 91.77,-3.8711 94.64,-3.8711 5.82,0 26.07,0 26.07,9.6797 0,34.7305 -94.61,-10.6406 -94.61,96.5317 v 201.816 c 0,6.766 3.84,9.668 8.66,9.668 4.86,0 11.57,-2.902 17.38,-9.668 l 272.3,-283.8867 c 8.71,-8.6719 16.41,-24.1407 28.97,-24.1407 20.28,0 39.56,3.8711 59.89,3.8711 19.32,0 39.56,-3.8711 58.86,-3.8711 6.79,0 11.59,4.8399 11.59,12.5391 0,29.9609 -41.52,-6.7383 -106.2,60.8476 l -268.4,280.9887 c -6.76,7.734 -10.63,12.539 -10.63,18.371 0,4.812 5.81,10.593 14.45,18.308 l 225.95,200.86 c 110.09,89.793 132.31,53.105 132.31,84 0,6.761 -11.59,7.726 -17.4,7.726 -30.87,0 -38.62,-3.863 -88.83,-3.863 -51.2,0 -66.61,3.863 -102.34,3.863 -7.71,0 -12.54,-3.863 -12.54,-11.59 0,-17.367 54.08,-14.472 54.08,-45.375 0,-24.144 -50.24,-61.8 -68.56,-78.222 L 4562.95,386.387"
         style="fill:#231f20;fill-opacity:1;fill-rule:evenodd;stroke:none"
         id="path883"
         inkscape:connector-curvature="0" /></g></g></svg>