<?xml version="1.0" encoding="utf-8"?>
<!-- Generator: Adobe Illustrator 21.0.2, SVG Export Plug-In . SVG Version: 6.00 Build 0)  -->
<svg version="1.1" id="Layer_1" xmlns="http://www.w3.org/2000/svg" xmlns:xlink="http://www.w3.org/1999/xlink" x="0px" y="0px"
	 viewBox="0 0 546.2 102.7" style="enable-background:new 0 0 546.2 102.7;" xml:space="preserve">
<style type="text/css">
	.st0{fill:#BBBDBF;}
	.st1{opacity:0.25;fill:#0072CE;}
	.st2{fill:#808184;}
	.st3{fill:none;}
	.st4{fill:#0072CE;}
	.st5{fill:#0072CE;}
	.st6{fill:#231F20;}
</style>
<g>
	<polygon class="st4" points="140.3,36.2 128.5,75.9 116.3,36.2 105.7,36.2 97.7,86.2 106.2,86.2 112.2,47.5 124.1,86.2 132.5,86.2 
		144.4,47.5 150.4,86.2 159,86.2 151.1,36.2 	"/>
	<path class="st4" d="M179.4,48.1c-4.6,0-8.8,1.2-12.1,3v7.2c3.1-1.8,6.5-3,10.8-3c4.1,0,7.2,1.8,7.2,5.9v3.1h-4.1
		c-10.8,0-17.2,3.7-17.2,11.3c0,8.4,7.1,11.4,16.7,11.4c4.2,0,9.3-0.6,12.8-1.5V60.8C193.4,51.5,187.6,48.1,179.4,48.1z M185.2,80.3
		c-1.5,0.3-3.3,0.4-4.5,0.4c-5,0-8.6-1.5-8.6-5.4c0-3.8,3.8-5.5,9.6-5.5h3.5V80.3z"/>
	<path class="st4" d="M217.4,48.1c-5.6,0-11.3,1.3-15.1,2.9v50.3h8.2V86.1c1.5,0.6,4.1,1,6.8,1c12.6,0,20.5-7.3,20.5-19.9
		C237.9,55,229.9,48.1,217.4,48.1z M216.9,79.9c-2.4,0-4.5-0.4-6.3-1.1V56.5c1.8-0.6,4.4-0.9,6.7-0.9c7.5,0,12.2,4.4,12.2,11.8
		C229.5,75.7,224.3,79.9,216.9,79.9z"/>
	<path class="st4" d="M258.7,36.2l-19.4,50h9.1l4.4-11.8H275l4.4,11.8h9.3l-19.5-50H258.7z M255.3,67.4l8.6-23.1l8.5,23.1H255.3z"/>
	<path class="st4" d="M310.7,48.1c-5.5,0-11.9,1.2-17.1,3.2v34.9h8.3V56.8c2.2-0.7,5.1-1.1,8.1-1.1c4.6,0,8,1.9,8,7.3v23.2h8.2v-24
		C326.3,51.7,320.3,48.1,310.7,48.1z"/>
	<polygon class="st4" points="348.7,78.3 338.1,49 329.2,49 344.6,87.9 339.4,101.4 347.6,101.4 367.8,49 359.2,49 	"/>
	<path class="st4" d="M384.1,73.7V55.9h10.6v-7h-10.6v-9.1h-8.2V49h-5.6v7h5.6v19.6c0,8.5,5.1,11.5,11.2,11.5c3.5,0,6.6-0.8,9-2
		v-7.5c-2.3,1.3-4.4,2.1-6.8,2.1C386,79.7,384.1,78.1,384.1,73.7z"/>
	<path class="st4" d="M420.3,48.1c-4,0-7.7,0.9-9.8,1.8V29h-8.3v57.2h8.3V56.9c2.2-0.8,5.1-1.3,8.1-1.3c4.6,0,8,1.9,8,7.3v23.2h8.2
		v-24C434.9,51.8,428.7,48.1,420.3,48.1z"/>
	<path class="st4" d="M448,32.4c-2.8,0-5.2,2.3-5.2,5.1c0,2.9,2.4,5.3,5.2,5.3c2.8,0,5.2-2.4,5.2-5.3
		C453.2,34.6,450.8,32.4,448,32.4z"/>
	<rect x="443.9" y="49" class="st4" width="8.3" height="37.3"/>
	<path class="st4" d="M478.6,48.1c-5.5,0-11.9,1.2-17.1,3.2v34.9h8.3V56.8c2.2-0.7,5.1-1.1,8.1-1.1c4.6,0,8,1.9,8,7.3v23.2h8.2v-24
		C494.1,51.7,488.1,48.1,478.6,48.1z"/>
	<path class="st4" d="M500.9,67.3c0,12.4,8.2,18.8,19.8,18.8c2.9,0,5.9-0.7,7.1-1.4v0.8c0,7-4.5,9.7-9.8,9.7
		c-4.4,0-8.2-1.1-12.3-3.3v7.7c3.4,1.6,7.7,2.6,12.3,2.6c8.5,0,18.1-4,18.1-16.2V50.8c-3.7-1.5-8.9-2.7-14-2.7
		C509,48.1,500.9,55.3,500.9,67.3z M527.8,77.9c-2,0.8-3.9,1.3-6.5,1.3c-7.3,0-12-4.5-12-11.9c0-7.7,4.8-11.9,12.7-11.9
		c2.2,0,4.2,0.3,5.8,0.9V77.9z"/>
	<path class="st4" d="M42,0.5c-10.5,0-20.4,4.1-27.8,11.6C6.8,19.5,2.7,29.4,2.7,39.9c0,9,6.1,21.7,18.2,37.6
		c8.8,11.7,17.8,21.1,17.9,21.1c0.9,0.9,2.1,1.4,3.4,1.4c1.3,0,2.5-0.5,3.4-1.4c0.1-0.1,9-9.4,17.9-21.2c12-16,18.1-28.7,18-37.7
		C81.4,18.1,63.7,0.5,42,0.5z M48.7,62.6c0,0,0,0,0,0.1c0,0.1,0,0.2,0,0.3c0,0.1,0,0.2,0,0.3c0,0.1,0,0.2,0,0.3l-0.5,0.9
		c-0.2,0.4-0.4,0.9-0.4,1c0,0.2,0,0.4-0.1,0.6c-0.1,0.2-0.2,0.5-0.2,0.8c-0.1,0.3-0.1,0.6,0,0.8c0,0.2-0.1,0.4-0.2,0.5
		c-0.1,0.1-0.3,0.2-0.3,0.3l0,0.1c-1.6,0.3-3.2,0.4-4.8,0.4c-16.5,0-30-13.5-30-30c0-7.7,2.9-14.7,7.6-20c-0.1,0.3-0.2,0.6-0.2,0.9
		v0c-0.1,0.3-0.1,0.9-0.1,0.9l0.2,0c0.1,0,0.1,0.1,0.1,0.2c0,0.1-0.1,0.3-0.1,0.4c0,0.1,0,0.2,0,0.2c0,0,0,0,0.2,0
		c0.1,0,0.1,0,0.3,0c0.1,0-0.3,0.5-0.5,0.9l-0.1,0.1c-1,0.8-1.1,0.8-2.1,1.6c-0.2,0.4,0.8,0,1.6-0.6l1-0.5c0.3-0.3,0.7-0.7,1-1
		c0.3-0.3,0.3-0.8,0.5-0.9c0.1-0.1,0.4-0.3,0.6-0.4c0.2-0.1,0.5-0.3,0.6-0.3c0.1,0,0.3-0.2,0.5-0.3c0.2-0.2,0.4-0.2,0.4-0.1
		c0,0.1,0.2,0.2,0.3,0.3c0.1,0.1,0.4,0.1,0.6,0.1c0.2,0,0.4,0.1,0.5,0.2c0.1,0.1,0.3,0.5,0.5,0.9l0.1,0.3c0.2,0.4,0.4,1.1,0.4,1.6
		l0,0.8c0,0.5,0.4,0.9,0.8,0.9c0.4,0.1,0.7,0.4,0.7,0.6c0,0.3,0,0.6,0,0.8c0,0.2,0.2,0.4,0.4,0.6c0.2,0.2,0.3,0.6,0.3,0.9
		c0,0.3,0,0.8-0.1,1.1c-0.1,0.3-0.2,0.7-0.2,0.9c-0.1,0.2-0.1,0.6-0.1,0.9c0,0.2,0,0.5,0,0.6c0,0,0,0,0,0.3c0,0.1,0,0.1,0,0.4
		l0.5,1.2c0.2,0.4,0.4,1,0.6,1.2c0.1,0.3,0.4,0.6,0.6,0.8c0.2,0.1,0.3,0.5,0.5,1c0.2,0.4,0.4,1,0.6,1.4c0.1,0.4,0.4,1,0.7,1.3l0,0
		c0.3,0.4,0.6,0.7,1,1c0.3,0.3,0.4,0.2,0.4,0.1c-0.1-0.3-0.2-0.6-0.5-1c-0.2-0.4-0.6-1-0.8-1.4l0-0.1c-0.2-0.4-0.3-0.8-0.4-1
		c0-0.2,0.3-0.3,0.5-0.2c0.2,0.1,0.4,0.4,0.5,0.7c0.1,0.3,0.4,0.8,0.7,1.1l0.1,0.1c0.3,0.3,0.6,0.7,0.6,0.9c0,0.1,0.3,0.4,0.5,0.5
		c0.2,0.2,0.6,0.6,0.8,0.9c0.2,0.3,0.4,0.8,0.4,0.9c0,0.2,0.1,0.5,0.3,0.7c0.2,0.2,0.6,0.4,0.8,0.5c0.2,0.1,0.7,0.3,1,0.5
		c0.4,0.2,0.9,0.5,1.1,0.6c0.3,0.1,0.6,0.1,0.8,0.1c0.2-0.1,0.5-0.1,0.6,0c0.2,0.1,0.5,0.3,0.7,0.5c0.3,0.2,0.8,0.5,1.3,0.5
		c0.4,0.1,1,0.4,1.2,0.7c0.2,0.3,0.6,0.7,0.8,0.8c0.2,0.1,0.8,0.4,1.2,0.6l0,0c0.3,0.1,0.5,0.2,0.6,0.3l0,0c0.4,0.1,0.7-0.7,1.3,0.3
		l0,0c0,0.1,0,0.2,0,0.3c0,0.1,0,0.2,0,0.3c0,0.1,0,0.2,0,0.3l-0.3,0.6c-0.2,0.4-0.4,0.8-0.6,0.9c-0.1,0.1-0.3,0.4-0.4,0.7
		c-0.1,0.3-0.2,0.5-0.2,0.6c0,0,0,0,0,0.3c0,0.2,0.2,0.3,0.2,0.4c-0.1,0.1-0.2,0.3-0.2,0.4c-0.1,0.1,0,0.5,0.2,0.7
		c0.2,0.2,0.4,0.5,0.5,0.7c0.1,0.1,0.3,0.5,0.4,0.9c0.1,0.3,0.3,0.7,0.4,0.9c0.1,0.1,0.2,0.4,0.2,0.5c0,0.1,0.3,0.4,0.7,0.6
		c0.3,0.2,0.8,0.5,1,0.6c0.2,0.1,0.4,0.6,0.4,1c0,0.4,0,0.9-0.1,1.1c-0.1,0.2-0.1,0.5-0.2,0.8s-0.2,0.7-0.3,1.1
		C48.8,62,48.7,62.4,48.7,62.6z M49.1,68.3l0.1-0.1c0.1-0.1,0.3-0.2,0.4-0.2c0.1,0,0.4-0.3,0.6-0.5c0.2-0.3,0.3-0.6,0.2-0.7
		c-0.1-0.1-0.1-0.2,0.1-0.1c0.2,0.1,0.3,0,0.4,0c0.1-0.1,0.2-0.3,0.2-0.5c0.1-0.2,0.4-0.4,0.7-0.4c0.3,0,0.7-0.2,0.9-0.4
		c0.1-0.2,0.2-0.4,0.2-0.5c0-0.1-0.1-0.3-0.1-0.4s0.1-0.2,0.4-0.2c0.2,0.1,0.8-0.1,1.2-0.3l0.1,0c0.6-0.6,1.4-1.5,2-2.1
		c0.1-0.4,0.4-0.9,0.6-1.2c0.3-0.2,0.7-0.5,0.8-0.6c0.2-0.1,0.4-0.1,0.5-0.1c0,0,0,0,0.2,0c0.1,0,0.1,0,0.4,0c0.2-0.3,0.6-0.7,0.8-1
		c0.2-0.3,0.5-0.8,0.6-1.2c0.1-0.4,0.3-0.9,0.4-1.1c0.1-0.3,0.4-0.7,0.7-1.1l1-1c0,0,0.1-0.2,0.1-0.5c0.1-0.3,0.1-0.6,0.1-0.7
		c0-0.1-0.2-0.2-0.4-0.2c-0.2,0-0.5-0.2-0.7-0.4c-0.2-0.2-0.6-0.4-1-0.5c-0.4-0.1-1-0.3-1.3-0.5c-0.3-0.2-0.7-0.4-0.9-0.5
		c-0.2-0.1-0.4-0.2-0.4-0.2c0,0,0,0,0-0.3L57.8,50c-0.2-0.4-0.5-0.9-0.8-1c-0.3-0.1-0.8-0.3-1.1-0.3c-0.3-0.1-0.8-0.4-1.1-0.7
		c-0.3-0.3-0.7-0.8-0.9-1c-0.2-0.3-0.7-0.4-1.1-0.3c-0.4,0.1-0.9,0.1-1.1,0c-0.2-0.1-0.7-0.2-1-0.3c-0.3-0.1-0.8-0.2-1-0.3
		c-0.3-0.1-0.8-0.1-1.1,0.1c-0.3,0.1-0.6,0.4-0.7,0.6c-0.1,0.2-0.2,0.4-0.3,0.4c-0.1,0-0.4-0.1-0.6-0.3c-0.2-0.2-0.6-0.2-0.8,0
		c-0.3,0.2-0.7,0.2-1-0.2c-0.3-0.3-0.5-0.9-0.4-1.4c0.1-0.4,0-0.9-0.3-1c-0.2-0.1-0.5-0.2-0.6-0.2c0,0,0,0-0.1,0c-0.1,0-0.2,0-0.4,0
		c-0.1,0-0.2,0-0.4,0c-0.1,0-0.2,0-0.4,0l0.5-1.9c0.1-0.4-0.1-0.7-0.6-0.7c-0.4,0.1-0.9,0.4-1,0.8c-0.1,0.3-0.5,0.7-0.9,0.7
		c-0.4,0-0.9-0.1-1.1-0.4S39,42,38.9,41.5L38.7,41c-0.1-0.4-0.1-0.9,0-1c0.1-0.1,0.2-0.4,0.1-0.7c-0.1-0.2,0-0.6,0.2-0.8
		c0.1-0.2,0.4-0.4,0.6-0.4s0.3-0.1,0.3-0.1c0,0,0,0,0-0.3l0.6,0.1c0.5,0,1,0,1.2,0c0.2-0.1,0.3-0.2,0.3-0.3
		c-0.1-0.1,0.3-0.2,0.7-0.1c0.4,0,0.9,0.1,1.1,0.2c0.1,0.1,0.4,0.2,0.5,0.1c0.1-0.1,0.3,0,0.4,0.1c0.1,0.1,0.2,0.5,0.3,0.8
		c0.1,0.3,0.3,0.8,0.5,1.1c0.2,0.3,0.5,0.2,0.5-0.2c0-0.4-0.1-1.1-0.3-1.5l0-0.1c-0.2-0.4-0.2-0.9,0-1.1c0.2-0.2,0.4-0.5,0.6-0.5
		c0.2-0.1,0.4-0.3,0.6-0.5c0.2-0.2,0.5-0.5,0.7-0.7c0.2-0.2,0.5-0.7,0.6-1.2c0.1-0.4,0.3-1,0.4-1.3s0.4-0.6,0.7-0.7
		c0.2-0.1,0.5-0.2,0.6-0.2c0,0,0,0,0.2,0c0.1,0,0.3,0,0.4,0c0.3-0.2-0.3-0.8-0.3-1c0.1-0.2,0.5-0.4,0.9-0.6c0.4-0.1,0.8-0.1,0.8,0.1
		c0,0.2,0.4,0.1,0.8-0.1l0.7-0.4c0.4-0.2,0.7-0.6,0.6-0.8c0-0.2-0.2-0.3-0.4-0.2c-0.2,0.1-0.6,0-0.9-0.2c-0.3-0.2-0.6-0.4-0.6-0.5
		c0,0,0,0,0-0.3c0-0.1,0-0.1,0-0.4L52,27c-0.5,0-0.8-0.2-0.7-0.4c0.1-0.2,0.5-0.3,0.9-0.3l0.4,0c0.5,0,1.1-0.1,1.5-0.3
		c0.4-0.2,0.8-0.4,0.9-0.6c0.1-0.1,0.3-0.3,0.3-0.3c0,0,0,0,0-0.3c0-0.1,0-0.2-0.1-0.4L54.5,24c-0.4-0.3-0.9-0.7-1.3-1l-0.1,0
		c-0.4-0.3-0.6-0.6-0.5-0.7c0.1-0.1-0.1-0.5-0.3-0.8l-0.6-0.9c-0.2-0.4-0.5-0.6-0.6-0.4C51,20.2,51,20.5,51,20.6
		c0,0.2-0.1,0.4-0.3,0.5s-0.4,0-0.6-0.2c-0.2-0.2-0.4-0.6-0.4-0.9c-0.1-0.3-0.3-0.6-0.5-0.7c-0.2-0.1-0.6-0.3-0.8-0.6
		c-0.2-0.2-0.5-0.4-0.6-0.4c-0.2,0-0.5,0-0.7-0.1c-0.2-0.1-0.5-0.1-0.5,0.1c-0.1,0.1-0.1,0.4,0,0.5c0.1,0.1,0.1,0.3,0,0.4
		c-0.1,0.1,0,0.4,0.1,0.6c0.1,0.2,0.1,0.5-0.1,0.7s-0.2,0.4,0,0.5c0.2,0.2,0.4,0.6,0.5,0.9c0.1,0.3-0.1,0.8-0.4,1.1
		c-0.3,0.3-0.5,0.8-0.3,1.2c0.1,0.4,0.1,0.8,0.1,1c-0.1,0.2-0.3,0.3-0.4,0.3c-0.1,0-0.4-0.2-0.6-0.6c-0.2-0.3-0.3-0.9-0.3-1.2
		c0-0.3-0.3-0.6-0.6-0.6s-0.8-0.2-1.1-0.4c-0.3-0.2-0.8-0.5-1.1-0.6c-0.3-0.2-0.6-0.3-0.7-0.2c-0.1,0-0.3-0.2-0.4-0.6
		c-0.1-0.4-0.3-0.6-0.4-0.6c-0.1,0-0.2-0.3-0.1-0.8c0.1-0.4,0.4-1,0.7-1.4l0.2-0.1c0.3-0.3,0.7-0.7,0.8-0.9c0.1-0.2,0.2-0.4,0.3-0.4
		c0,0,0,0,0.2,0c0.1,0,0.1,0,0.3,0c0.2-0.4,0.4-0.9,0.5-1.2c0.1-0.2,0.4-0.5,0.7-0.5c0.3,0,0.6-0.2,0.7-0.4c0.1-0.2,0.1-0.5,0-0.7
		C45,14.2,45,14,45.1,14c0.1-0.1,0.1-0.2,0-0.4c-0.1-0.1-0.4-0.4-0.6-0.5C44.2,13,44,13,44,13.2c0,0.1,0,0.3,0,0.4
		c0,0.1-0.1,0.2-0.4,0.3c-0.2,0-0.4,0-0.8,0c-0.2,0-0.4-0.1-0.6-0.3c-0.2-0.2-0.3-0.5-0.2-0.6c0-0.1-0.1-0.4-0.2-0.7
		c-0.1-0.3-0.3-0.6-0.4-0.6c-0.1,0-0.3,0.2-0.5,0.5c-0.2,0.3-0.2,0.7-0.2,0.8c0,0.1,0.2,0.3,0.4,0.4c0.1,0.1,0.3,0.3,0.2,0.6
		c0,0.2-0.2,0.3-0.3,0.2c-0.2-0.1-0.6-0.4-0.8-0.7C40.2,13.1,40,13,40,13.2s-0.2,0.4-0.4,0.5c-0.1,0.1-0.3,0.3-0.7,0.4
		c-0.4,0.1-0.8,0.1-0.9,0c-0.1-0.1-0.5-0.2-0.7-0.1c-0.3,0.1-0.4,0.3-0.4,0.4c0,0.2-0.1,0.2-0.3,0.1c-0.2-0.1-0.5-0.1-0.7-0.1
		c-0.2,0.1-0.5,0.1-0.8,0.1s-0.4-0.1-0.3-0.2c0.1-0.1,0.2-0.3,0.2-0.4c0-0.1-0.1-0.2-0.3-0.3c-0.2,0-0.5-0.2-0.8-0.3
		c-0.3-0.1-0.6-0.3-0.7-0.3c-0.1,0-0.3,0.1-0.4,0.2l-0.3-0.2c-0.1,0-0.4,0.1-0.4-0.1c0-0.2-0.2-0.3-0.5-0.3
		c-0.3,0.1-0.8,0.3-1.2,0.4c-0.4,0.2-0.8,0.4-1,0.6c-0.1,0.2-0.3,0.2-0.4,0.1s-0.2-0.3-0.3-0.3c-0.1-0.1-0.2-0.2-0.3-0.3
		c0-0.1-0.2-0.1-0.4-0.1c-0.2,0.1-0.5,0-0.6-0.1L27.3,13c4.4-2.5,9.4-3.9,14.8-3.9c16.5,0,30,13.5,30,30
		C72.1,53.2,62.3,65.1,49.1,68.3z"/>
	<path class="st4" d="M541.4,40.8c0-0.1,0-0.2,0-0.3v-0.3c0-0.2-0.1-0.4-0.2-0.6c-0.1-0.2-0.4-0.4-0.7-0.4c0.3,0,0.5-0.1,0.6-0.2
		c0.3-0.2,0.4-0.4,0.4-0.8c0-0.5-0.2-0.9-0.6-1c-0.2-0.1-0.6-0.1-1.1-0.1h-1.4v4.1h0.7v-1.6h0.6c0.4,0,0.7,0,0.8,0.1
		c0.3,0.2,0.4,0.5,0.4,0.9v0.3l0,0.1l0,0l0,0h0.7l0-0.1C541.4,41,541.4,40.9,541.4,40.8z M540.3,38.9c-0.2,0.1-0.4,0.1-0.7,0.1H539
		v-1.5h0.6c0.4,0,0.7,0.1,0.9,0.2c0.2,0.1,0.3,0.3,0.3,0.6C540.8,38.6,540.6,38.8,540.3,38.9z"/>
	<path class="st4" d="M542.4,36.4c-0.7-0.7-1.6-1.1-2.6-1.1c-1,0-1.9,0.4-2.6,1.1c-0.7,0.7-1.1,1.6-1.1,2.6c0,1,0.4,1.9,1.1,2.6
		c0.7,0.7,1.6,1.1,2.6,1.1s1.9-0.4,2.6-1.1c0.7-0.7,1.1-1.6,1.1-2.6C543.5,38,543.1,37.2,542.4,36.4z M542,41.4
		c-0.6,0.6-1.4,0.9-2.3,0.9c-0.9,0-1.6-0.3-2.3-0.9c-0.6-0.6-0.9-1.4-0.9-2.3c0-0.9,0.3-1.6,0.9-2.3c0.6-0.6,1.4-0.9,2.3-0.9
		c0.9,0,1.6,0.3,2.3,0.9c0.6,0.6,0.9,1.4,0.9,2.3C543,40,542.7,40.7,542,41.4z"/>
</g>
</svg>
