<?xml version="1.0" encoding="UTF-8" standalone="no"?>
<!-- Created with Inkscape (http://www.inkscape.org/) -->

<svg
   xmlns:dc="http://purl.org/dc/elements/1.1/"
   xmlns:cc="http://creativecommons.org/ns#"
   xmlns:rdf="http://www.w3.org/1999/02/22-rdf-syntax-ns#"
   xmlns:svg="http://www.w3.org/2000/svg"
   xmlns="http://www.w3.org/2000/svg"
   xmlns:sodipodi="http://sodipodi.sourceforge.net/DTD/sodipodi-0.dtd"
   xmlns:inkscape="http://www.inkscape.org/namespaces/inkscape"
   width="82.028107mm"
   height="34.143116mm"
   viewBox="0 0 290.65077 120.97954"
   id="svg4401"
   version="1.1"
   inkscape:version="0.92.3 (2405546, 2018-03-11)"
   sodipodi:docname="premier_staffing_partners.svg">
  <defs
     id="defs4403" />
  <sodipodi:namedview
     id="base"
     pagecolor="#ffffff"
     bordercolor="#666666"
     borderopacity="1.0"
     inkscape:pageopacity="0.0"
     inkscape:pageshadow="2"
     inkscape:zoom="0.98994949"
     inkscape:cx="-71.253973"
     inkscape:cy="-20.10581"
     inkscape:document-units="px"
     inkscape:current-layer="layer1"
     showgrid="false"
     showguides="false"
     fit-margin-top="0"
     fit-margin-left="0"
     fit-margin-right="0"
     fit-margin-bottom="0"
     inkscape:window-width="1366"
     inkscape:window-height="705"
     inkscape:window-x="279"
     inkscape:window-y="1072"
     inkscape:window-maximized="1" />
  <metadata
     id="metadata4406">
    <rdf:RDF>
      <cc:Work
         rdf:about="">
        <dc:format>image/svg+xml</dc:format>
        <dc:type
           rdf:resource="http://purl.org/dc/dcmitype/StillImage" />
        <dc:title></dc:title>
      </cc:Work>
    </rdf:RDF>
  </metadata>
  <g
     inkscape:label="Layer 1"
     inkscape:groupmode="layer"
     id="layer1"
     transform="translate(-119.33184,-5.2034481)">
    <g
       id="g5063"
       transform="translate(-40.737864,-139.04826)">
      <path
         inkscape:connector-curvature="0"
         id="path4971"
         d="m 326.36773,265.04663 c -0.78952,-0.12466 -0.81676,-0.23538 -0.42117,-1.71172 0.23261,-0.86816 0.47734,-1.57847 0.54384,-1.57847 0.0665,0 0.57989,0.21597 1.14089,0.47992 1.57874,0.7428 3.99221,0.62815 5.2474,-0.24928 1.03317,-0.72224 2.04237,-2.46131 2.62624,-4.52562 l 0.26465,-0.93561 -0.89556,0.65567 c -3.48703,2.55299 -6.72896,1.49464 -6.83711,-2.23202 -0.13877,-4.78204 3.01356,-10.05145 6.37198,-10.65133 1.3912,-0.24851 3.16444,0.35246 3.45645,1.17141 0.29907,0.83879 0.66214,0.76359 0.91769,-0.19009 0.19685,-0.73468 0.33163,-0.79986 1.65405,-0.79986 h 1.43973 l -2.28154,8.51486 c -2.17629,8.12202 -2.32846,8.57136 -3.29812,9.73966 -1.43645,1.73072 -3.67615,2.55718 -6.75787,2.4937 -1.28008,-0.0264 -2.70726,-0.1079 -3.17153,-0.18122 z m 8.24951,-9.57869 c 1.02709,-0.81004 1.6797,-1.98068 2.23092,-4.00177 0.60384,-2.21405 0.6004,-3.07469 -0.016,-4.02709 -0.9126,-1.40977 -3.06949,-0.49014 -4.08652,1.74238 -0.80089,1.7581 -1.34455,5.04568 -0.98704,5.96883 0.38462,0.99315 1.80248,1.15072 2.85875,0.31765 z m -89.68057,3.03423 -1.43015,-0.3343 0.46223,-1.72506 c 0.25423,-0.94879 0.5224,-1.72507 0.59593,-1.72507 0.0736,0 0.77822,0.37408 1.56599,0.83129 3.00954,1.74668 6.82055,0.96371 7.72039,-1.58615 0.60038,-1.70129 0.002,-2.68107 -2.84843,-4.6667 -3.68227,-2.56476 -4.41502,-3.8211 -3.72675,-6.38977 0.43654,-1.6292 1.97125,-3.21637 3.96999,-4.10573 1.30682,-0.58148 2.15069,-0.71986 4.38953,-0.71986 1.52442,0 3.1975,0.09 3.71792,0.19996 0.90205,0.19063 0.92703,0.27165 0.5348,1.73547 l -0.41144,1.53548 -1.58671,-0.61567 c -3.21793,-1.24859 -6.1173,-0.48345 -6.72217,1.77397 -0.35403,1.32122 0.49324,2.38362 3.38474,4.24418 3.38492,2.17805 4.27648,4.37851 2.98775,7.37399 -0.67089,1.55937 -1.78458,2.62075 -3.75371,3.5774 -1.34179,0.65187 -2.12431,0.80063 -4.5212,0.85959 -1.59421,0.0393 -3.54213,-0.0792 -4.32871,-0.26302 z m 17.66533,0.0283 c -1.38044,-0.564 -1.38597,-1.34089 -0.0483,-6.7722 l 1.24107,-5.03907 h -1.25165 c -1.21717,0 -1.2434,-0.0309 -0.95161,-1.1198 0.2929,-1.09313 0.33051,-1.11979 1.57982,-1.11979 h 1.27975 l 0.42849,-1.59911 c 0.41841,-1.56151 0.47019,-1.6214 2.20196,-2.54618 l 1.77348,-0.94705 -0.58931,2.54616 -0.58933,2.54618 h 2.22666 2.22664 l -0.29613,1.10518 -0.29613,1.10518 -2.18495,0.0946 -2.18495,0.0946 -1.1268,4.20578 c -1.31483,4.90759 -1.20319,5.55242 0.96125,5.55242 1.19262,0 1.22101,0.0342 0.93012,1.11978 l -0.30005,1.11981 -2.15282,-0.0253 c -1.18407,-0.0139 -2.4788,-0.15844 -2.87721,-0.32121 z m 9.11034,0.0441 c -1.18789,-0.54608 -1.49262,-1.59369 -0.99923,-3.43506 0.42926,-1.60203 0.59117,-1.84048 1.90715,-2.80874 1.17491,-0.86443 1.88996,-1.12941 3.90734,-1.44796 3.57577,-0.56463 3.37347,-0.44987 3.53365,-2.00465 0.0769,-0.74747 0.0461,-1.53344 -0.0688,-1.74658 -0.57458,-1.06633 -2.76825,-0.64344 -3.64014,0.70175 -0.45175,0.69698 -0.71727,0.80558 -1.96978,0.80558 -1.22274,0 -1.42164,-0.0971 -1.28024,-0.62484 0.75736,-2.82649 5.37854,-4.68851 8.42229,-3.39359 2.34558,0.99792 2.36885,1.32967 0.56524,8.06083 l -1.5744,5.87577 h -1.43974 c -1.22643,0 -1.41434,-0.0948 -1.26828,-0.63989 0.0944,-0.35193 0.0274,-0.63988 -0.14849,-0.63988 -0.17596,0 -0.35752,0.14028 -0.40347,0.31172 -0.25874,0.96569 -4.10046,1.64872 -5.5431,0.98554 z m 5.1932,-2.65751 c 0.70923,-0.49579 1.20696,-1.15927 1.59658,-2.12826 l 0.56608,-1.4079 -1.43032,0.18518 c -1.79654,0.23261 -3.31509,1.15683 -3.75056,2.28268 -0.69555,1.79823 1.07669,2.42551 3.01822,1.0683 z m 89.19218,2.31873 c -1.73197,-1.26219 -1.09094,-4.20098 1.30009,-5.96022 1.09212,-0.80353 1.85384,-1.08035 3.8323,-1.39276 3.58879,-0.56668 3.39771,-0.45931 3.57598,-2.00928 0.19144,-1.66451 -0.53735,-2.60325 -1.79197,-2.30821 -1.17465,0.27624 -1.82255,0.74952 -2.01638,1.47289 -0.13601,0.50754 -0.40902,0.6007 -1.76067,0.6007 -1.41076,0 -1.57847,-0.0792 -1.42003,-0.67052 0.72967,-2.72317 5.45901,-4.60338 8.41539,-3.34564 2.33969,0.9954 2.36292,1.32962 0.5599,8.05856 l -1.57441,5.87577 h -1.43973 c -1.2191,0 -1.41386,-0.0965 -1.27086,-0.63025 0.16015,-0.59772 0.0978,-0.58947 -1.20731,0.15997 -1.7441,1.00148 -3.94598,1.06454 -5.2023,0.14899 z m 5.50715,-2.31823 c 1.24515,-0.87249 2.44601,-3.06937 1.82338,-3.33569 -0.66309,-0.28361 -2.61111,0.18463 -3.69343,0.88778 -1.0856,0.70527 -1.688,2.10946 -1.19432,2.78385 0.44731,0.61104 1.94767,0.44655 3.06437,-0.33594 z m 20.84438,2.45574 c -0.41952,-0.27059 -0.8033,-0.85321 -0.85287,-1.29473 -0.0495,-0.44151 0.48605,-2.95297 1.19024,-5.58101 l 1.28034,-4.77829 h -1.43974 c -1.43212,0 -1.43814,-0.005 -1.13968,-1.1198 0.29846,-1.11387 0.30766,-1.1198 1.73978,-1.1198 h 1.43974 l 0.45038,-1.67968 0.4504,-1.67969 1.84008,-0.89831 1.84009,-0.89828 -0.69078,2.57798 -0.69077,2.57798 h 2.07962 2.07961 l -0.30005,1.1198 -0.30005,1.1198 h -2.10379 -2.1038 l -1.10311,4.50563 c -1.24782,5.0967 -1.1816,5.41254 1.13486,5.41254 1.205,0 1.22852,0.0284 0.86001,1.0398 l -0.37887,1.03981 -2.25944,0.0741 c -1.5472,0.0507 -2.49989,-0.081 -3.0222,-0.41785 z m 26.77785,0.11925 c -2.3668,-0.90818 -3.15604,-3.74402 -2.11906,-7.61406 1.09419,-4.08361 3.44212,-6.26264 7.11519,-6.60337 1.39221,-0.12915 1.98029,-0.014 2.96944,0.58165 1.46622,0.88289 1.93792,2.17245 1.60619,4.39115 l -0.24379,1.63057 h -4.24567 -4.24565 l -0.12307,1.16464 c -0.17468,1.65302 0.6339,3.43862 1.85862,4.10444 0.80819,0.43939 1.49287,0.5248 2.98818,0.37275 l 1.93976,-0.19721 -0.37454,1.02442 c -0.28447,0.77807 -0.5811,1.07748 -1.23351,1.24506 -1.31017,0.33654 -4.91379,0.27534 -5.89209,-0.10006 z m 6.76811,-10.33355 c 0.0707,-0.26395 -0.0822,-0.76787 -0.33983,-1.11981 -0.67317,-0.91956 -2.47129,-0.84951 -3.73282,0.14544 -1.59012,1.25407 -1.3995,1.45428 1.38454,1.45428 2.06184,0 2.58452,-0.0934 2.68811,-0.47991 z m 13.5856,10.49222 c -0.58838,-0.11949 -0.62896,-0.33926 -0.29373,-1.59036 0.33791,-1.26114 0.454,-1.42006 0.88426,-1.21059 1.01941,0.49629 4.2336,0.53391 4.99541,0.0585 1.05165,-0.65631 0.84404,-1.2732 -0.9218,-2.7391 -3.00822,-2.49723 -3.46577,-4.42077 -1.61298,-6.7808 1.35524,-1.72627 4.60513,-2.62303 6.99378,-1.92981 1.21904,0.35377 1.24759,0.40623 0.90896,1.67 -0.32432,1.21043 -0.39702,1.28751 -1.00558,1.0663 -1.34005,-0.48711 -3.45089,-0.52377 -4.17899,-0.0726 -1.14524,0.70967 -0.81933,1.54412 1.21693,3.1159 2.14181,1.65324 2.73142,2.89215 2.24333,4.71374 -0.41083,1.53324 -1.68522,2.84803 -3.37641,3.48352 -1.09654,0.41203 -4.30372,0.53002 -5.85318,0.21535 z M 296.59056,244.47963 h 2.04817 l 0.7098,-1.83965 c 1.37348,-3.55974 2.98455,-4.5562 7.36931,-4.55797 l 2.9598,-0.001 -0.32554,1.21493 -0.32554,1.21495 -2.02314,-0.13107 c -1.84075,-0.11924 -2.117,-0.057 -3.06439,0.69017 -0.77472,0.611 -1.13004,1.15254 -1.38808,2.11553 l -0.3468,1.2943 h 2.07962 2.07961 l -0.30005,1.1198 -0.30005,1.1198 h -2.07961 -2.07961 l -1.58598,5.91889 -1.58597,5.91891 h -1.75967 -1.75967 l 1.58918,-5.93092 1.58918,-5.9309 -2.19407,0.0647 z m -1.72027,2.30777 -2.74736,0.0919 -1.65175,5.83893 -1.65173,5.83891 h -1.59249 -1.59249 l 1.58598,-5.91891 -3e-5,-6e-5 1.58597,-5.9189 h -1.27977 c -1.24928,0 -1.27262,-0.0267 -0.97971,-1.1198 0.29289,-1.09314 0.3305,-1.1198 1.57981,-1.1198 h 1.27976 l 0.40854,-1.52471 c 0.92548,-3.45391 3.09911,-4.8741 7.45988,-4.8741 h 2.80449 l -0.32084,1.19978 -0.32084,1.19976 -1.9743,-0.10386 c -1.76287,-0.0927 -2.07675,-0.019 -2.93086,0.68843 -0.53799,0.44557 -1.18726,1.36599 -1.48376,2.10346 l -0.52715,1.3112 h 3.05854 z m 11.52669,4.73098 1.88602,-7.03871 h 1.5997 1.5997 l -1.88601,7.03871 -1.88601,7.0387 h -1.59971 -1.59969 z m 7.35865,0 1.88601,-7.03871 h 1.75968 1.75967 l -0.29147,1.0878 -0.29147,1.0878 1.34727,-1.06257 c 2.71648,-2.1424 5.5819,-1.72234 6.06765,0.88951 0.21644,1.16379 0.0491,2.11933 -1.17657,6.71586 l -1.42891,5.35901 h -1.5997 -1.5997 l 1.23258,-4.71914 c 1.4734,-5.64099 1.51295,-6.28338 0.39518,-6.41853 -2.36102,-0.28548 -3.90568,1.79101 -5.36968,7.21838 l -1.0572,3.91929 h -1.75968 -1.75968 z m 40.26407,-3.11943 2.80635,-10.15812 3.84935,0.0352 c 2.11714,0.0194 4.32696,0.20812 4.91069,0.41944 2.21895,0.80337 2.83451,3.45871 1.52707,6.58725 -1.15158,2.75558 -3.78872,4.31636 -7.7192,4.56861 l -2.36016,0.15147 -1.14605,4.27713 -1.14605,4.27713 h -1.76418 -1.76416 l 2.80634,-10.15813 z m 7.95576,-1.56138 c 1.1414,-0.62567 1.95004,-1.91535 2.15984,-3.44465 0.25326,-1.8461 -0.42082,-2.52322 -2.67761,-2.6897 l -1.89463,-0.13974 -0.89615,3.34451 c -0.49288,1.83947 -0.81778,3.45158 -0.72198,3.58244 0.25379,0.34668 3.02632,-0.10243 4.03053,-0.65286 z m 18.96776,4.68081 1.88602,-7.03871 h 1.5997 1.59971 l -0.30005,1.1198 c -0.3562,1.32936 -0.0165,1.42612 1.02932,0.29322 0.74892,-0.81126 2.69843,-1.73296 3.66538,-1.73296 0.38087,0 0.38504,0.39242 0.0187,1.75968 -0.45713,1.70606 -0.49832,1.75971 -1.35166,1.76087 -1.07933,10e-4 -3.06033,1.00563 -3.7994,1.92588 -0.30106,0.37485 -1.12867,2.54215 -1.83914,4.81622 l -1.29178,4.1347 h -1.55139 -1.55141 l 1.88602,-7.0387 z m 21.43605,0 1.88601,-7.03871 h 1.59971 1.5997 l -0.36307,1.35975 -0.36306,1.35975 0.86495,-0.98543 c 1.73466,-1.97624 4.98954,-2.60008 6.19764,-1.18784 0.98182,1.1479 0.88483,2.3544 -0.64984,8.08191 l -1.46013,5.44927 h -1.59971 -1.5997 l 1.33442,-4.98012 c 0.75591,-2.82109 1.26273,-5.24841 1.16905,-5.59897 -0.24665,-0.92294 -1.73039,-0.79422 -3.00846,0.26099 -1.48457,1.22572 -2.29966,2.88908 -3.37076,6.87872 l -0.92349,3.43938 h -1.59971 -1.5997 l 1.88601,-7.0387 z m 28.79468,0 1.88601,-7.03871 h 1.75967 1.75968 l -0.3029,1.13047 -0.30291,1.13045 1.43336,-1.13045 c 0.78836,-0.62176 1.60906,-1.13243 1.8238,-1.13483 0.2147,-0.002 0.73764,-0.0911 1.162,-0.1973 0.7331,-0.18329 0.74755,-0.10331 0.29005,1.60408 -0.46806,1.74677 -0.50611,1.79703 -1.36166,1.79819 -1.19243,10e-4 -3.19967,1.09619 -3.84991,2.09939 -0.2925,0.4513 -1.01153,2.61084 -1.59784,4.79898 l -1.06602,3.97843 h -1.75967 -1.75968 z M 309.30274,241.1539 c -0.0284,-0.24545 0.14263,-1.0013 0.38013,-1.67968 0.42992,-1.22805 0.43852,-1.23385 1.97764,-1.33094 l 1.54585,-0.0975 -0.4762,1.7772 -0.47619,1.77721 h -1.44978 c -0.94497,0 -1.46777,-0.1554 -1.50145,-0.44629 z"
         style="fill:#110051;fill-opacity:1"
         sodipodi:nodetypes="ccsssccsssccscssccccscssccccsssscssscscssssscccscscscsscccccccccsssccccsscsccsscsscscscssccsssssssscsssscsccsscsssccscscscccccccccccccsssccccsscscccscccsscccccsccsscssscsssssccccsccccsscccccccccccccccccccccccccscscssccccccccccccccccccccccccssccccsssccccccccssccccccccsccsccccccssssccscccccccccccscscccscsccccccccccccsccsccsccccccscccsc" />
      <path
         d="m 338.57974,198.88295 c -0.0922,-0.16666 0.0914,-1.43932 0.4081,-2.82814 l 0.57576,-2.52512 h 4.0555 c 3.12193,0 4.00997,0.11864 3.85772,0.5154 -0.10878,0.28346 -0.41383,1.55613 -0.6779,2.82813 l -0.48013,2.31274 h -3.78569 c -2.08214,0 -3.86115,-0.13635 -3.95336,-0.30301 z m 41.20751,27.90685 c 0.13846,-0.9005 1.2679,-6.84377 2.50989,-13.20726 l 2.25814,-11.57 3.71067,-0.12623 3.71068,-0.12623 -0.28081,2.47788 -0.28081,2.4779 2.31693,-2.00686 c 2.85841,-2.47589 5.02602,-3.35137 8.29765,-3.35137 2.93693,0 2.85862,-0.20713 1.85956,4.91861 -0.43731,2.24364 -0.82645,3.34204 -1.13741,3.21048 -1.40644,-0.59502 -4.32543,-0.735 -6.18376,-0.29653 -4.77176,1.12588 -6.35419,3.71697 -8.08195,13.23358 l -1.08992,6.00329 h -3.9303 -3.93031 z m -47.90544,1.27038 c 0,-0.5083 5.18327,-25.07526 5.43292,-25.75022 0.22285,-0.60249 8.49737,-0.81489 8.51469,-0.21855 0.005,0.18031 -1.20276,6.17959 -2.68442,13.33174 l -2.69393,13.00391 h -4.28463 c -2.35655,0 -4.28463,-0.1651 -4.28463,-0.36688 z m -54.73801,-0.39006 c 0.12557,-0.41631 1.32935,-5.91495 2.67509,-12.21918 1.34573,-6.30423 2.54953,-11.90018 2.67509,-12.43545 0.21701,-0.92517 0.43482,-0.97321 4.41282,-0.97321 h 4.18452 l -0.29761,1.82617 -0.2976,1.8262 1.17402,-0.74484 c 0.64571,-0.40966 1.62035,-1.02022 2.16585,-1.35678 2.78988,-1.72129 9.73123,-2.56411 12.53445,-1.52194 1.56857,0.58316 3.2027,2.05681 3.70987,3.34556 l 0.39173,0.99542 1.65535,-1.3001 c 2.67513,-2.10101 5.69666,-3.19509 9.4219,-3.4116 5.01359,-0.2914 7.87332,0.88332 9.46702,3.88887 0.92419,1.74291 0.8158,2.73867 -1.43831,13.21387 l -2.07094,9.62395 h -4.38259 -4.38259 l 0.25334,-1.18947 c 3.51751,-16.51588 3.55753,-16.87958 1.99665,-18.14564 -2.53007,-2.0522 -8.78206,-0.27895 -10.56924,2.99775 -0.26123,0.47896 -1.21666,4.30215 -2.12315,8.49596 l -1.64819,7.62513 -4.44174,0.12287 c -4.0723,0.11264 -4.42639,0.0587 -4.25682,-0.6488 1.37676,-5.74442 3.26687,-15.20861 3.26687,-16.35798 0,-4.3682 -8.82597,-3.89687 -11.35932,0.60662 -0.48607,0.86406 -1.51641,4.49065 -2.28965,8.05908 -0.77324,3.56843 -1.51145,6.92601 -1.64047,7.46128 -0.22384,0.9287 -0.43536,0.9732 -4.62462,0.9732 -3.97408,0 -4.3684,-0.0717 -4.16173,-0.75694 z m -55.72022,-0.39051 c 0.1155,-0.54274 1.17681,-6.21697 2.35847,-12.60938 1.18164,-6.39241 2.24303,-11.96795 2.35863,-12.39009 0.18096,-0.66083 0.72743,-0.76753 3.93109,-0.76753 3.66114,0 3.71752,0.0159 3.51026,0.98682 -0.11586,0.54276 -0.33671,1.77629 -0.4908,2.74118 l -0.28016,1.75435 1.83511,-1.89544 c 2.75273,-2.84323 5.29425,-4.01603 8.7142,-4.02121 1.55509,-0.002 2.82294,0.14374 2.81742,0.32465 -0.0189,0.62019 -1.47837,7.63134 -1.62229,7.79319 -0.079,0.0889 -0.92792,-0.0364 -1.88629,-0.27858 -3.23494,-0.81741 -7.30873,0.39903 -9.20798,2.74952 -1.44376,1.7868 -2.03465,3.60806 -3.30642,10.19135 l -1.2379,6.40799 h -3.85168 c -3.79656,0 -3.84868,-0.0141 -3.64166,-0.98682 z m -30.78354,-33.59856 -0.22461,1.19709 c -1.07849,5.72557 -6.38617,32.70049 -6.55078,33.29326 -0.19239,0.69287 0.18765,0.7616 4.21875,0.7616 h 4.43164 l 0.67969,-3.37457 c 0.37438,-1.85502 0.95042,-4.68086 1.27929,-6.27995 l 0.59766,-2.90751 8.76172,-0.13886 c 8.21946,-0.13034 8.89348,-0.20197 10.89453,-1.17605 4.2564,-2.0719 7.41942,-7.49622 7.51562,-12.88812 0.0775,-4.34347 -2.02523,-7.04432 -6.24804,-8.01983 -1.17955,-0.27249 -6.89758,-0.46706 -13.69141,-0.46706 z m 13.99414,6.52822 c 7.61106,0 8.16211,0.22592 8.16211,3.33248 0,2.57526 -1.0058,4.79568 -2.57813,5.68878 -0.9528,0.54123 -2.73238,0.75865 -7.32031,0.89624 -3.33316,0.1 -6.16627,0.0636 -6.29687,-0.0821 -0.19632,-0.21903 0.4013,-3.8513 1.45898,-8.85717 0.20382,-0.96465 0.30234,-0.97828 6.57422,-0.97828 z m 160.6445,0.67842 c -2.79393,0.0326 -5.69252,0.36788 -7.55273,0.99341 -7.2367,2.43348 -11.55251,8.62344 -11.55251,16.57231 0,5.24147 2.38634,8.44416 7.3303,9.84152 2.97763,0.84159 9.79372,0.86467 12.74733,0.0421 1.28253,-0.35719 3.25191,-1.14953 4.37771,-1.75952 2.15134,-1.16565 6.08431,-4.9037 6.08431,-5.78368 0,-0.36301 -1.21824,-0.51564 -4.11985,-0.51564 -3.98,0 -4.16632,0.0429 -5.48592,1.28175 -4.45529,4.18265 -12.79063,2.08628 -12.79063,-3.21807 v -1.11127 h 11.98359 11.98162 l 0.28541,-2.43722 c 0.78537,-6.72109 -1.30869,-11.02817 -6.36185,-13.08274 -1.44367,-0.58698 -4.13285,-0.85553 -6.92678,-0.82293 z m -1.21449,5.43851 c 2.5514,-0.006 5.02766,0.85289 5.91108,2.37198 0.29251,0.50299 0.65039,1.45251 0.79326,2.11101 l 0.25787,1.19757 h -7.74367 c -4.70519,0 -7.74367,-0.16563 -7.74367,-0.42095 0,-0.85643 2.42513,-3.33282 4.18088,-4.27041 1.25594,-0.67067 2.8134,-0.98558 4.34425,-0.9892 z m -101.62152,-5.35314 c -7.9228,0.0223 -14.35987,3.69845 -17.05164,9.73608 -3.94936,8.85846 -1.49996,16.2631 6.01732,18.18965 2.18442,0.55931 8.95017,0.55593 11.43639,-0.006 3.45865,-0.78218 6.90235,-2.8607 9.24933,-5.58218 l 2.12101,-2.45727 -4.12354,-0.12465 c -4.02208,-0.12154 -4.16146,-0.0937 -5.62496,1.14729 -1.88517,1.59853 -3.68777,2.25442 -6.19407,2.25442 -3.56147,0 -6.17712,-1.95908 -6.62525,-4.96312 l -0.23698,-1.5931 h 11.85788 11.85788 l 0.24279,-0.98248 c 0.47873,-1.94325 0.25544,-7.34419 -0.37099,-8.97545 -1.68382,-4.38489 -5.98796,-6.66135 -12.55517,-6.64285 z m -0.40983,5.7153 c 1.18113,0.0146 2.21567,0.16002 2.75616,0.40356 1.56899,0.70696 3.19901,2.83665 3.19901,4.17924 v 1.05855 h -7.67412 -7.67216 l 0.80994,-1.41984 c 1.37685,-2.41144 4.15696,-3.99483 7.36334,-4.19192 0.41332,-0.0254 0.82413,-0.0344 1.21783,-0.0297 z"
         style="fill:#8b2428"
         id="path5010"
         inkscape:connector-curvature="0" />
      <path
         sodipodi:nodetypes="ssssssssccsssccs"
         inkscape:connector-curvature="0"
         id="path5039"
         d="m 355.43945,144.29297 c -22.58148,0.40098 -48.67457,3.71907 -74.85937,9.51953 -59.06907,13.08498 -105.68143,35.82396 -117.69688,55.33167 -2.5824,4.19267 -3.03099,8.7718 -2.73309,12.00231 0.19005,2.06093 0.92829,5.21622 3.49333,8.27385 4.56326,5.43959 12.4536,6.986 19.67173,8.16917 9.17103,1.50329 22.90947,1.02879 35.04946,-0.7745 4.8293,-0.71735 16.23378,-2.17663 20.33077,-3.19862 3.09338,-0.77165 3.69212,-0.7912 3.31903,-0.99663 -9.02323,1.13692 -56.39893,5.29392 -68.346,-5.33581 -2.50659,-2.34903 -4.78387,-5.58598 -4.97682,-9.01225 -0.43182,-7.66783 2.67205,-15.27928 9.54616,-20.94794 45.49481,-37.51682 128.07767,-50.32344 174.40174,-49.52168 32.06082,0.55489 83.50723,8.00718 45.34849,47.92645 10.93589,-6.6708 21.48156,-20.05246 21.05888,-32.1504 -2.81456,-12.72546 -26.61627,-19.94191 -63.60743,-19.28515 z"
         style="opacity:1;fill:#8b2428;fill-opacity:1;stroke:none;stroke-width:0.20370035;stroke-linecap:round;stroke-linejoin:miter;stroke-miterlimit:4;stroke-dasharray:none;stroke-dashoffset:0;stroke-opacity:1" />
      <path
         style="opacity:1;fill:#110051;fill-opacity:1;stroke:none;stroke-width:0.2;stroke-linecap:round;stroke-linejoin:miter;stroke-miterlimit:4;stroke-dasharray:none;stroke-dashoffset:0;stroke-opacity:1"
         d="m 352.72589,150.06422 c -14.90247,-0.2896 -29.86988,0.87851 -44.60787,3.10536 -20.11031,3.03859 -52.38755,11.4458 -59.40309,13.93522 13.14488,-1.94897 64.33187,-13.94692 96.76835,-11.91843 20.15035,1.26015 41.86919,3.72116 58.72409,14.83588 1.7585,1.15962 3.6469,5.47259 3.83589,5.02189 0.75816,-1.80802 -1.40697,-8.24764 -4.30055,-10.84648 -13.12839,-11.79114 -32.45244,-13.77268 -51.01682,-14.13344 z"
         id="path5068"
         inkscape:connector-curvature="0"
         sodipodi:nodetypes="sacaasas" />
    </g>
  </g>
</svg>
