<?xml version="1.0" encoding="UTF-8" standalone="no"?>
<!-- Created with Inkscape (http://www.inkscape.org/) -->

<svg
   xmlns:dc="http://purl.org/dc/elements/1.1/"
   xmlns:cc="http://creativecommons.org/ns#"
   xmlns:rdf="http://www.w3.org/1999/02/22-rdf-syntax-ns#"
   xmlns:svg="http://www.w3.org/2000/svg"
   xmlns="http://www.w3.org/2000/svg"
   xmlns:sodipodi="http://sodipodi.sourceforge.net/DTD/sodipodi-0.dtd"
   xmlns:inkscape="http://www.inkscape.org/namespaces/inkscape"
   version="1.1"
   id="svg815"
   xml:space="preserve"
   width="630.45837"
   height="299.30984"
   viewBox="0 0 630.45838 299.30985"
   sodipodi:docname="pyxl.svg"
   inkscape:version="0.92.3 (2405546, 2018-03-11)"><metadata
     id="metadata821"><rdf:RDF><cc:Work
         rdf:about=""><dc:format>image/svg+xml</dc:format><dc:type
           rdf:resource="http://purl.org/dc/dcmitype/StillImage" /><dc:title></dc:title></cc:Work></rdf:RDF></metadata><defs
     id="defs819"><clipPath
       clipPathUnits="userSpaceOnUse"
       id="clipPath831"><path
         d="M 0,500 H 500 V 0 H 0 Z"
         id="path829"
         inkscape:connector-curvature="0" /></clipPath></defs><sodipodi:namedview
     pagecolor="#ffffff"
     bordercolor="#666666"
     borderopacity="1"
     objecttolerance="10"
     gridtolerance="10"
     guidetolerance="10"
     inkscape:pageopacity="0"
     inkscape:pageshadow="2"
     inkscape:window-width="1920"
     inkscape:window-height="1017"
     id="namedview817"
     showgrid="false"
     fit-margin-top="0"
     fit-margin-left="0"
     fit-margin-right="0"
     fit-margin-bottom="0"
     inkscape:zoom="1.323"
     inkscape:cx="315.22908"
     inkscape:cy="149.6552"
     inkscape:window-x="-8"
     inkscape:window-y="-8"
     inkscape:window-maximized="1"
     inkscape:current-layer="g823" /><g
     id="g823"
     inkscape:groupmode="layer"
     inkscape:label="_PyxlLogo"
     transform="matrix(1.3333333,0,0,-1.3333333,-18.104266,482.98799)"><g
       id="g825"><g
         id="g827"
         clip-path="url(#clipPath831)"><g
           id="g833"
           transform="translate(49.1802,274.7671)"><path
             d="m 0,0 c 3.544,3.127 10.254,7.65 19.414,7.65 16.612,0 30.646,-14.137 30.646,-30.872 0,-17.019 -13.747,-30.868 -30.646,-30.868 -9.445,0 -15.047,3.459 -19.414,7.577 z m 64.425,-23.222 c 0,24.523 -20.614,45.233 -45.011,45.233 -10.435,0 -20.707,-3.992 -28.92,-11.246 l -4.857,-4.283 v -59.195 c 0,0 13.017,-15.741 33.777,-15.741 24.821,0 45.011,20.291 45.011,45.232"
             style="fill:#13ce66;fill-opacity:1;fill-rule:nonzero;stroke:none"
             id="path835"
             inkscape:connector-curvature="0" /></g><g
           id="g837"
           transform="translate(68.5942,318.0122)"><path
             d="m 0,0 c -21.497,0 -43.74,-11.667 -54.082,-28.376 l -0.934,-1.506 v -150.371 h 14.363 v 146.151 c 8.26,11.537 24.949,19.737 40.653,19.737 29.22,0 52.111,-22.883 52.111,-52.102 0,-29.219 -23.203,-52.107 -52.111,-52.107 -20.29,0 -34.005,12.751 -34.005,12.751 v -74.43 h 14.363 v 50.194 c 6.215,-1.844 13.095,-2.878 19.642,-2.878 37.274,0 66.472,29.199 66.472,66.47 C 66.472,-29.196 37.274,0 0,0"
             style="fill:#13ce66;fill-opacity:1;fill-rule:nonzero;stroke:none"
             id="path839"
             inkscape:connector-curvature="0" /></g><path
           d="m 424.543,187.386 h 14.362 v 174.855 h -14.362 z"
           style="fill:#13ce66;fill-opacity:1;fill-rule:nonzero;stroke:none"
           id="path841"
           inkscape:connector-curvature="0" /><path
           d="m 445.781,187.386 h 14.362 v 174.855 h -14.362 z"
           style="fill:#13ce66;fill-opacity:1;fill-rule:nonzero;stroke:none"
           id="path843"
           inkscape:connector-curvature="0" /><g
           id="g845"
           transform="translate(292.7822,187.3857)"><path
             d="M 0,0 48.162,64.171 0.066,128.339 H -17.986 L 30.201,64.171 -17.986,0 Z"
             style="fill:#114dba;fill-opacity:1;fill-rule:nonzero;stroke:none"
             id="path847"
             inkscape:connector-curvature="0" /></g><g
           id="g849"
           transform="translate(319.4785,315.7246)"><path
             d="m 0,0 h -17.933 l 43.637,-58.494 4.514,-5.674 -4.514,-5.672 -43.688,-58.499 H 0 l 48.179,64.171 z"
             style="fill:#114dba;fill-opacity:1;fill-rule:nonzero;stroke:none"
             id="path851"
             inkscape:connector-curvature="0" /></g><g
           id="g853"
           transform="translate(371.8877,257.231)"><path
             d="M 0,0 0.032,-0.042 43.99,58.494 H 25.936 L -8.934,11.975 Z"
             style="fill:#13ce66;fill-opacity:1;fill-rule:nonzero;stroke:none"
             id="path855"
             inkscape:connector-curvature="0" /></g><g
           id="g857"
           transform="translate(358.6904,274.9248)"><path
             d="M 0,0 30.437,40.8 H 12.502 L -9.036,12.109 Z"
             style="fill:#13ce66;fill-opacity:1;fill-rule:nonzero;stroke:none"
             id="path859"
             inkscape:connector-curvature="0" /></g><g
           id="g861"
           transform="translate(371.8877,245.8848)"><path
             d="M 0,0 -8.931,-11.954 26.002,-58.499 H 43.99 L 0.032,0.039 Z"
             style="fill:#13ce66;fill-opacity:1;fill-rule:nonzero;stroke:none"
             id="path863"
             inkscape:connector-curvature="0" /></g><g
           id="g865"
           transform="translate(349.6396,216.0977)"><path
             d="M 0,0 21.553,-28.712 H 39.538 L 9.051,12.114 Z"
             style="fill:#13ce66;fill-opacity:1;fill-rule:nonzero;stroke:none"
             id="path867"
             inkscape:connector-curvature="0" /></g><g
           id="g869"
           transform="translate(476.1387,196.8975)"><path
             d="m 0,0 v -1.134 h -3.203 v -8.378 h -1.303 v 8.378 H -7.709 V 0 Z"
             style="fill:#13ce66;fill-opacity:1;fill-rule:nonzero;stroke:none"
             id="path871"
             inkscape:connector-curvature="0" /></g><g
           id="g873"
           transform="translate(477.293,196.8975)"><path
             d="M 0,0 H 1.845 L 4.58,-8.041 7.296,0 H 9.129 V -9.512 H 7.898 v 5.615 c 0,0.194 0.003,0.515 0.012,0.963 0.01,0.449 0.014,0.93 0.014,1.445 L 5.209,-9.512 H 3.933 l -2.742,8.023 v -0.292 c 0,-0.234 0.006,-0.588 0.02,-1.065 0.013,-0.479 0.018,-0.829 0.018,-1.051 V -9.512 H 0 Z"
             style="fill:#13ce66;fill-opacity:1;fill-rule:nonzero;stroke:none"
             id="path875"
             inkscape:connector-curvature="0" /></g><g
           id="g877"
           transform="translate(244.728,196.1465)"><path
             d="M 0,0 C 0.105,0.585 0.166,1.104 0.166,1.536 V 15.645 C -6.477,10.09 -17.962,3.292 -34.534,3.292 c -27.968,0 -52.103,23.38 -52.103,52.106 v 64.18 h -14.36 v -64.18 c 0,-36.648 29.812,-66.469 66.463,-66.469 6.754,0 12.665,1 17.543,2.321 -4.425,-9.207 -14.831,-19.446 -21.069,-23.632 l 10.256,-10.449 C -13.4,-33.254 -1.736,-16.074 0,0"
             style="fill:#13ce66;fill-opacity:1;fill-rule:nonzero;stroke:none"
             id="path879"
             inkscape:connector-curvature="0" /></g><g
           id="g881"
           transform="translate(210.1943,206.3135)"><path
             d="m 0,0 c 24.205,0 34.699,15.5 34.699,15.5 v 93.911 H 20.335 V 22.152 C 15.34,17.919 9.254,14.365 0,14.365 c -16.733,0 -30.864,14.135 -30.864,30.866 v 64.18 H -45.23 V 45.231 C -45.23,20.713 -24.205,0 0,0"
             style="fill:#13ce66;fill-opacity:1;fill-rule:nonzero;stroke:none"
             id="path883"
             inkscape:connector-curvature="0" /></g><g
           id="g885"
           transform="translate(251.7656,315.7246)"><path
             d="m 0,0 v -116.96 c -0.632,-19.091 -13.189,-39.169 -29.837,-50.548 l 10.265,-10.458 c 16.237,11.818 28.597,30.189 32.572,49.495 0.87,3.768 1.362,7.645 1.362,11.615 v 1.406 c 0,0.225 0.003,0.443 0,0.668 L 14.362,0 Z"
             style="fill:#13ce66;fill-opacity:1;fill-rule:nonzero;stroke:none"
             id="path887"
             inkscape:connector-curvature="0" /></g></g></g></g></svg>